<?xml version="1.0" standalone="no"?>
<svg viewBox="0 0 200 200" xmlns="http://www.w3.org/2000/svg">
  <path fill="#113F67" d="M39.7,-58.8C52.9,-53.2,66.1,-44.7,74.9,-32.2C83.7,-19.7,88.1,-3.2,83.5,10.3C79,23.9,65.5,34.4,53.5,44.1C41.6,53.7,31.2,62.4,18.5,68.7C5.8,75,-9.3,79,-22.7,75.8C-36.2,72.6,-48.1,62.3,-57.7,50.4C-67.3,38.5,-74.7,25.2,-79.7,9.7C-84.6,-5.8,-87.1,-23.4,-79.1,-34.2C-71.1,-45,-52.6,-49,-37.7,-53.8C-22.7,-58.6,-11.4,-64.1,0.9,-65.6C13.2,-67,26.5,-64.4,39.7,-58.8Z" transform="translate(100 100)" />
</svg>
