<svg style="position: absolute; width: 0; height: 0; overflow: hidden;" version="1.1" xmlns="http://www.w3.org/2000/svg">
<defs>
<symbol id="icon-display" viewBox="0 -32 512 512">
<path d="m62.640625 137.230469c2.804687-46.371094 41.292969-83.113281 88.371094-83.113281 37.964843 0 70.347656 23.902343 82.929687 57.476562 32.695313.394531 59.082032 27.003906 59.082032 59.792969 0 33.035156-26.78125 59.816406-59.816407 59.816406-13.828125 0-154.71875 0-168.925781 0-25.960938 0-47.007812-21.046875-47.007812-47.007813 0-25.410156 20.167968-46.097656 45.367187-46.964843zm0 0" fill="#f0f5f7"/><path d="m293.023438 171.390625c0 23.898437-14.027344 44.53125-34.292969 54.105469 3.652343-7.738282 5.699219-16.390625 5.699219-25.519532 0-32.789062-26.382813-59.402343-59.078126-59.792968-12.585937-33.578125-44.964843-57.476563-82.933593-57.476563-17.121094 0-33.109375 4.859375-46.65625 13.28125 15.625-25.136719 43.480469-41.867187 75.25-41.867187 37.960937 0 70.347656 23.898437 82.925781 57.46875 32.699219.398437 59.085938 27.011718 59.085938 59.800781zm0 0" fill="#dde9ed"/><path d="m460.949219 249.117188c-3.160157-52.179688-46.46875-93.523438-99.445313-93.523438-42.722656 0-79.160156 26.894531-93.320312 64.671875-36.792969.445313-66.484375 30.390625-66.484375 67.289063 0 37.175781 30.136719 67.308593 67.308593 67.308593h190.09375c29.214844 0 52.894532-23.683593 52.894532-52.894531 0-28.597656-22.691406-51.875-51.046875-52.851562zm0 0" fill="#c4e1e8"/><path d="m512 301.964844c0 29.214844-23.6875 52.902344-52.902344 52.902344h-4.097656c3.835938-7.324219 6.007812-15.660157 6.007812-24.496094 0-28.59375-22.691406-51.875-51.050781-52.855469-3.15625-52.175781-46.472656-93.523437-99.445312-93.523437-7.144531 0-14.109375.75-20.820313 2.179687 18.121094-18.847656 43.59375-30.578125 71.8125-30.578125 52.976563 0 96.289063 41.339844 99.445313 93.527344 28.359375.96875 51.050781 24.25 51.050781 52.84375zm0 0" fill="#a4d5dd"/><path d="m428.652344 193.21875c0 65.496094-53.09375 118.589844-118.589844 118.589844-65.5 0-118.59375-53.09375-118.59375-118.589844 0-65.5 53.09375-118.59375 118.59375-118.59375 65.496094 0 118.589844 53.09375 118.589844 118.59375zm0 0" fill="#f6cb43"/><path d="m310.066406 311.808594c-65.5 0-118.59375-53.09375-118.59375-118.59375 0-57.445313 40.84375-105.359375 95.082032-116.253906-1.535157 7.601562-2.335938 15.457031-2.335938 23.511718 0 65.5 53.089844 118.589844 118.589844 118.589844 8.054687 0 15.910156-.800781 23.511718-2.332031-10.910156 54.234375-58.820312 95.078125-116.253906 95.078125zm0 0" fill="#fab03c"/><g fill="#f8e98e"><path d="m495.550781 200.945312h-25.542969c-4.265624 0-7.726562-3.460937-7.726562-7.726562 0-4.269531 3.460938-7.726562 7.726562-7.726562h25.542969c4.269531 0 7.726563 3.457031 7.726563 7.726562 0 4.265625-3.457032 7.726562-7.726563 7.726562zm0 0"/><path d="m448.585938 120.972656c-2.667969 0-5.265626-1.386718-6.695313-3.867187-2.136719-3.695313-.871094-8.421875 2.828125-10.554688l22.121094-12.769531c3.695312-2.132812 8.417968-.871094 10.550781 2.828125 2.136719 3.695313.871094 8.417969-2.828125 10.550781l-22.121094 12.773438c-1.214844.703125-2.542968 1.039062-3.855468 1.039062zm0 0"/><path d="m390.027344 62.425781c-1.308594 0-2.636719-.332031-3.855469-1.035156-3.695313-2.136719-4.960937-6.859375-2.828125-10.554687l12.773438-22.121094c2.132812-3.695313 6.855468-4.964844 10.554687-2.828125 3.695313 2.132812 4.960937 6.859375 2.824219 10.554687l-12.769532 22.121094c-1.429687 2.476562-4.027343 3.863281-6.699218 3.863281zm0 0"/><path d="m310.0625 40.996094c-4.269531 0-7.726562-3.460938-7.726562-7.726563v-25.542969c0-4.265624 3.457031-7.726562 7.726562-7.726562 4.265625 0 7.722656 3.460938 7.722656 7.726562v25.542969c.003906 4.265625-3.457031 7.726563-7.722656 7.726563zm0 0"/><path d="m230.09375 62.425781c-2.667969 0-5.265625-1.386719-6.695312-3.863281l-12.773438-22.121094c-2.132812-3.695312-.867188-8.421875 2.828125-10.554687 3.695313-2.132813 8.421875-.867188 10.554687 2.828125l12.769532 22.121094c2.136718 3.695312.871094 8.421874-2.828125 10.554687-1.214844.703125-2.542969 1.035156-3.855469 1.035156zm0 0"/></g><path d="m259.25 249.117188c-3.160156-52.179688-46.46875-93.523438-99.445312-93.523438-42.722657 0-79.160157 26.894531-93.320313 64.671875-36.792969.445313-66.484375 30.390625-66.484375 67.289063 0 37.171874 30.136719 67.308593 67.308594 67.308593h190.09375c29.214844 0 52.898437-23.683593 52.898437-52.898437-.003906-28.59375-22.695312-51.871094-51.050781-52.847656zm0 0" fill="#c4e1e8"/><path d="m310.300781 301.964844c0 29.214844-23.6875 52.902344-52.902343 52.902344h-4.097657c3.835938-7.324219 6.007813-15.660157 6.007813-24.496094 0-28.59375-22.691406-51.875-51.050782-52.855469-3.15625-52.175781-46.472656-93.523437-99.445312-93.523437-7.144531 0-14.109375.75-20.820312 2.179687 18.121093-18.847656 43.59375-30.578125 71.8125-30.578125 52.976562 0 96.289062 41.339844 99.449218 93.527344 28.355469.96875 51.046875 24.25 51.046875 52.84375zm0 0" fill="#a4d5dd"/><path d="m418.566406 342.792969c-3.15625-52.179688-46.46875-93.523438-99.441406-93.523438-42.726562 0-79.164062 26.894531-93.324219 64.671875-36.789062.445313-66.480469 30.394532-66.480469 67.289063 0 37.175781 30.132813 67.308593 67.308594 67.308593h190.09375c29.210938 0 52.894532-23.683593 52.894532-52.894531 0-28.597656-22.691407-51.875-51.050782-52.851562zm0 0" fill="#f0f5f7"/><path d="m469.621094 395.640625c0 29.214844-23.6875 52.902344-52.902344 52.902344h-4.097656c3.835937-7.324219 6.007812-15.660157 6.007812-24.496094 0-28.59375-22.691406-51.875-51.050781-52.855469-3.15625-52.175781-46.472656-93.523437-99.449219-93.523437-7.144531 0-14.109375.75-20.820312 2.179687 18.125-18.84375 43.597656-30.578125 71.816406-30.578125 52.976562 0 96.289062 41.339844 99.445312 93.527344 28.359376.96875 51.050782 24.25 51.050782 52.84375zm0 0" fill="#dde9ed"/><path d="m392.191406 336.9375c-3.488281 0-6.652344-2.382812-7.503906-5.921875-.894531-3.71875-2.117188-7.386719-3.636719-10.898437-1.695312-3.917969.105469-8.464844 4.023438-10.160157 3.917969-1.695312 8.464843.109375 10.160156 4.023438 1.871094 4.328125 3.375 8.84375 4.476563 13.421875 1 4.152344-1.558594 8.320312-5.707032 9.320312-.605468.144532-1.214844.214844-1.8125.214844zm0 0" fill="#f0f5f7"/><path d="m373.371094 302.578125c-2.03125 0-4.058594-.796875-5.574219-2.378906-12.867187-13.40625-30.152344-20.789063-48.671875-20.789063-4.265625 0-7.726562-3.457031-7.726562-7.726562 0-4.265625 3.460937-7.722656 7.726562-7.722656 22.765625 0 44.011719 9.070312 59.820312 25.542968 2.953126 3.074219 2.855469 7.96875-.222656 10.921875-1.5 1.4375-3.425781 2.152344-5.351562 2.152344zm0 0" fill="#f0f5f7"/><path d="m78.875 372.9375c2.257812-37.304688 33.222656-66.859375 71.09375-66.859375 30.546875 0 56.59375 19.226563 66.71875 46.234375 26.304688.320312 47.53125 21.726562 47.53125 48.105469 0 26.578125-21.542969 48.121093-48.121094 48.121093-11.125 0-124.46875 0-135.902344 0-20.882812 0-37.816406-16.929687-37.816406-37.816406 0-20.441406 16.222656-37.085937 36.496094-37.785156zm0 0" fill="#f0f5f7"/><path d="m264.21875 400.421875c0 26.347656-21.1875 47.75-47.457031 48.109375 7.875-8.574219 12.679687-19.996094 12.679687-32.542969 0-26.375-21.222656-47.785156-47.535156-48.105469-10.121094-27.003906-36.167969-46.238281-66.71875-46.238281-3.609375 0-7.152344.273438-10.621094.792969 12.324219-10.21875 28.144532-16.355469 45.402344-16.355469 30.546875 0 56.59375 19.222657 66.714844 46.234375 26.3125.320313 47.535156 21.722656 47.535156 48.105469zm0 0" fill="#dde9ed"/>
</symbol>
<symbol id="icon-display2" viewBox="0 0 512 512">
<g><circle cx="330.151" cy="240.094" fill="#feb137" r="78.895"/><g fill="#ffd15b"><path d="m320.513 129.937c-7.425.65-13.97-4.843-14.62-12.267l-4.115-47.029c-.65-7.425 4.843-13.97 12.267-14.62 7.425-.65 13.97 4.843 14.62 12.267l4.115 47.029c.65 7.425-4.842 13.971-12.267 14.62z"/><path d="m320.513 129.937c-7.425.65-13.97-4.843-14.62-12.267l-4.115-47.029c-.65-7.425 4.843-13.97 12.267-14.62 7.425-.65 13.97 4.843 14.62 12.267l4.115 47.029c.65 7.425-4.842 13.971-12.267 14.62z"/><path d="m438.032 228.547c-.65-7.425 4.843-13.97 12.267-14.62l47.029-4.115c7.425-.65 13.97 4.843 14.62 12.267.65 7.425-4.843 13.97-12.267 14.62l-47.029 4.115c-7.425.65-13.971-4.842-14.62-12.267z"/><path d="m413.066 307.729c4.791-5.709 13.303-6.454 19.012-1.663l36.164 30.345c5.709 4.791 6.454 13.303 1.663 19.012-4.791 5.709-13.303 6.454-19.012 1.663l-36.164-30.345c-5.709-4.791-6.454-13.302-1.663-19.012z"/><path d="m413.066 307.729c4.791-5.709 13.303-6.454 19.012-1.663l36.164 30.345c5.709 4.791 6.454 13.303 1.663 19.012-4.791 5.709-13.303 6.454-19.012 1.663l-36.164-30.345c-5.709-4.791-6.454-13.302-1.663-19.012z"/><path d="m190.03 120.58c4.791-5.709 13.303-6.454 19.012-1.663l36.164 30.345c5.709 4.791 6.454 13.303 1.663 19.012-4.791 5.709-13.303 6.454-19.012 1.663l-36.164-30.345c-5.709-4.791-6.454-13.303-1.663-19.012z"/><path d="m447.389 98.064c5.709 4.791 6.454 13.303 1.663 19.012l-30.345 36.164c-4.791 5.709-13.303 6.454-19.012 1.663-5.709-4.791-6.454-13.303-1.663-19.012l30.345-36.164c4.791-5.709 13.303-6.454 19.012-1.663z"/></g><path d="m359.95 335.386c3.437-48.123-40.871-85.218-87.384-73.927-9.43-42.487-47.328-74.26-92.654-74.26-53.717 0-97.032 44.637-94.827 98.839-46.421-.163-85.085 37.595-85.085 84.996 0 45.839 36.287 83.196 81.702 84.928v.07h273.051c33.381 0 60.441-27.061 60.441-60.441 0-31.63-24.299-57.568-55.244-60.205z" fill="#d8ecfe"/><path d="m359.95 335.386c3.437-48.123-40.871-85.218-87.384-73.927-9.43-42.487-47.328-74.26-92.654-74.26-11.59 0-22.694 2.082-32.963 5.886 44.399.957 81.289 32.381 90.574 74.215 46.513-11.291 90.821 25.804 87.384 73.927 30.946 2.638 55.244 28.575 55.244 60.204 0 24.096-14.103 44.893-34.503 54.601h9.104c33.381 0 60.441-27.06 60.441-60.441.001-31.63-24.298-57.568-55.243-60.205z" fill="#c4e2ff"/></g>
</symbol>
<symbol id="icon-blob-display" viewBox="0 0 200 200">
<path d="M57.6,-64.2C73.6,-55.3,84.6,-36.1,84.9,-17.4C85.3,1.2,75,19.3,64,35.7C53,52.1,41.4,66.9,25.2,75.5C9,84.1,-11.6,86.5,-24.9,77.7C-38.2,68.9,-44.1,48.9,-53.2,31.5C-62.2,14.1,-74.5,-0.6,-74.2,-15C-74,-29.5,-61.3,-43.8,-46.9,-53C-32.4,-62.1,-16.2,-66.3,2.3,-69.1C20.8,-71.8,41.7,-73.2,57.6,-64.2Z" transform="translate(100 100)" />
</symbol>
<symbol id="icon-blob-text" viewBox="0 0 200 200">
<path d="M39.7,-58.8C52.9,-53.2,66.1,-44.7,74.9,-32.2C83.7,-19.7,88.1,-3.2,83.5,10.3C79,23.9,65.5,34.4,53.5,44.1C41.6,53.7,31.2,62.4,18.5,68.7C5.8,75,-9.3,79,-22.7,75.8C-36.2,72.6,-48.1,62.3,-57.7,50.4C-67.3,38.5,-74.7,25.2,-79.7,9.7C-84.6,-5.8,-87.1,-23.4,-79.1,-34.2C-71.1,-45,-52.6,-49,-37.7,-53.8C-22.7,-58.6,-11.4,-64.1,0.9,-65.6C13.2,-67,26.5,-64.4,39.7,-58.8Z" transform="translate(100 100)" />
</symbol>
<symbol id="icon-feature-weather" viewBox="0 0 512 512">
<g clip-rule="evenodd" fill-rule="evenodd"><path d="m497 0h-482c-8.284 0-15 6.716-15 15v390.967c0 8.284 6.716 15 15 15h150.911v61.033h-30c-8.284 0-15 6.716-15 15s6.716 15 15 15h240c8.284 0 15-6.716 15-15s-6.716-15-15-15h-30v-61.033h151.089c8.284 0 15-6.716 15-15v-390.967c0-8.284-6.716-15-15-15zm-301.089 482v-61h120v61zm286.089-452v300.966h-452v-300.966zm-452 360.967v-30.001h452v30.001z"/><path d="m311.772 282h71.723c33.954 0 61.577-27.623 61.577-61.577 0-12.454-3.728-24.049-10.11-33.748l1.643-18.498 12.168-14.54c4.662-5.571 4.662-13.683 0-19.253l-12.168-14.541-1.678-18.887c-.643-7.236-6.378-12.972-13.614-13.614l-18.886-1.677-14.541-12.168c-5.571-4.662-13.682-4.662-19.253 0l-14.541 12.168-18.886 1.677c-7.236.643-12.971 6.378-13.614 13.614l-1.678 18.886-8.736 10.439c-41.56.321-75.275 34.218-75.275 75.852.002 41.833 34.036 75.867 75.869 75.867zm37.609-154.814.983-11.071 11.072-.983c3.053-.271 5.949-1.471 8.299-3.438l8.524-7.134 8.524 7.134c2.35 1.967 5.247 3.166 8.299 3.438l11.072.983.983 11.071c.271 3.053 1.471 5.949 3.438 8.299l7.134 8.525-7.134 8.523c-1.967 2.351-3.167 5.247-3.438 8.3l-.235 2.648c-7.222-2.98-15.124-4.635-23.409-4.635-3.907 0-7.761.361-11.54 1.079-7.399-9.645-16.934-17.274-27.734-22.382l1.723-2.059c1.969-2.349 3.168-5.246 3.439-8.298zm-37.609 33.08c16.956 0 32.465 9.301 40.476 24.273 3.652 6.825 11.898 9.751 19.034 6.754 3.865-1.623 7.974-2.446 12.213-2.446 17.412 0 31.577 14.165 31.577 31.576 0 17.412-14.165 31.577-31.577 31.577h-71.723c-25.292 0-45.867-20.576-45.867-45.867s20.576-45.867 45.867-45.867z"/><path d="m74.91 100.001h115.99c8.284 0 15-6.716 15-15s-6.716-15-15-15h-115.99c-8.284 0-15 6.716-15 15s6.716 15 15 15z"/><path d="m74.91 160.001h115.99c8.284 0 15-6.716 15-15s-6.716-15-15-15h-115.99c-8.284 0-15 6.716-15 15s6.716 15 15 15z"/><path d="m74.91 220h115.99c8.284 0 15-6.716 15-15s-6.716-15-15-15h-115.99c-8.284 0-15 6.716-15 15s6.716 15 15 15z"/><path d="m74.911 250c-8.262 0-15 6.738-15 15s6.738 15 15 15 15-6.738 15-15-6.739-15-15-15z"/><path d="m132.911 250c-8.262 0-15 6.738-15 15s6.738 15 15 15 15-6.738 15-15-6.738-15-15-15z"/><path d="m191.411 250c-8.262 0-15 6.738-15 15s6.738 15 15 15 15-6.738 15-15-6.739-15-15-15z"/></g>
</symbol>
<symbol id="icon-feature-location" viewBox="0 0 511.998 511.998">
<g><path d="m255.999 0c-117.449 0-213 95.552-213 213 0 27.932 8.198 60.441 24.366 96.627 13.971 31.267 33.536 64.225 56.581 95.312 38.366 51.756 93.205 107.06 132.053 107.06s93.688-55.304 132.054-107.06c23.044-31.087 42.609-64.045 56.58-95.312 16.168-36.186 24.366-68.695 24.366-96.627 0-117.448-95.552-213-213-213zm107.953 387.073c-20.36 27.467-42.778 52.155-63.124 69.518-27.625 23.575-41.297 25.407-44.829 25.407s-17.204-1.832-44.829-25.407c-20.345-17.362-42.763-42.051-63.124-69.518-46.992-63.391-75.047-128.466-75.047-174.073 0-100.906 82.093-183 183-183 100.906 0 183 82.094 183 183 0 45.607-28.055 110.682-75.047 174.073z"/><path d="m354.516 142.985-1.838-20.699c-.643-7.236-6.379-12.972-13.614-13.614l-20.699-1.838-15.937-13.337c-5.572-4.662-13.682-4.662-19.254 0l-15.937 13.337-20.699 1.838c-7.236.643-12.971 6.378-13.614 13.614l-1.839 20.699-9.974 11.918c-44.375.047-80.462 36.162-80.462 80.548 0 44.415 36.134 80.55 80.549 80.55h77.24c35.929 0 65.159-29.23 65.159-65.16 0-13.324-4.027-25.722-10.918-36.054l1.836-20.674 13.338-15.938c4.662-5.571 4.661-13.683-.001-19.254zm-93.965 7.344 1.145-12.885 12.886-1.145c3.053-.271 5.949-1.472 8.3-3.438l9.92-8.302 9.92 8.302c2.351 1.967 5.247 3.167 8.3 3.438l12.885 1.145 1.145 12.885c.271 3.053 1.471 5.949 3.438 8.3l8.302 9.92-8.303 9.921c-1.967 2.351-3.166 5.247-3.438 8.3l-.394 4.438c-8.028-3.543-16.893-5.526-26.217-5.526-4.375 0-8.689.428-12.911 1.278-8.22-10.914-18.998-19.446-31.237-24.957l2.823-3.374c1.965-2.351 3.164-5.247 3.436-8.3zm37.887 135.672h-77.24c-27.873 0-50.549-22.677-50.549-50.55s22.676-50.55 50.549-50.55c18.687 0 35.779 10.25 44.606 26.75 3.652 6.825 11.898 9.752 19.034 6.754 4.304-1.808 8.88-2.724 13.6-2.724 19.387 0 35.159 15.772 35.159 35.159.001 19.389-15.772 35.161-35.159 35.161z"/></g>
</symbol>
<symbol id="icon-magnifying" viewBox="-1 0 136 136.21852">
<g>
<path fill="#F3F9FB" d="M 93.148438 80.832031 C 109.5 57.742188 104.03125 25.769531 80.941406 9.421875 C 57.851562 -6.925781 25.878906 -1.460938 9.53125 21.632812 C -6.816406 44.722656 -1.351562 76.691406 21.742188 93.039062 C 38.222656 104.707031 60.011719 105.605469 77.394531 95.339844 L 115.164062 132.882812 C 119.242188 137.175781 126.027344 137.347656 130.320312 133.269531 C 134.613281 129.195312 134.785156 122.410156 130.710938 118.117188 C 130.582031 117.980469 130.457031 117.855469 130.320312 117.726562 Z M 51.308594 84.332031 C 33.0625 84.335938 18.269531 69.554688 18.257812 51.308594 C 18.253906 33.0625 33.035156 18.269531 51.285156 18.261719 C 69.507812 18.253906 84.292969 33.011719 84.328125 51.234375 C 84.359375 69.484375 69.585938 84.300781 51.332031 84.332031 C 51.324219 84.332031 51.320312 84.332031 51.308594 84.332031 Z M 51.308594 84.332031 " style=" stroke:none;fill-rule:nonzero;fill-opacity:1;" />
</g>
</symbol>
<symbol id="icon-feature-color-location" viewBox="0 0 511.998 511.998">
<g><g><path d="m255.999 511.998c-38.849 0-93.687-55.304-132.053-107.06-23.045-31.087-42.61-64.045-56.581-95.312-16.168-36.185-24.366-68.694-24.366-96.626 0-117.448 95.551-213 213-213 117.448 0 213 95.552 213 213 0 27.932-8.198 60.441-24.366 96.627-13.971 31.267-33.536 64.225-56.58 95.312-38.366 51.755-93.205 107.059-132.054 107.059z" fill="#ff435b"/></g><path d="m255.999 0v511.998c38.849 0 93.687-55.304 132.053-107.06 23.044-31.087 42.609-64.045 56.58-95.312 16.168-36.186 24.366-68.695 24.366-96.627.001-117.447-95.55-212.999-212.999-212.999z" fill="#cc2e43"/><g><path d="m292.801 247.099c-3.421 0-6.841-1.166-9.627-3.497l-15.937-13.337-20.699-1.838c-7.236-.643-12.971-6.378-13.614-13.614l-1.839-20.699-13.337-15.938c-4.662-5.57-4.662-13.682 0-19.253l13.337-15.937 1.839-20.699c.643-7.236 6.378-12.972 13.614-13.614l20.699-1.838 15.937-13.337c5.572-4.662 13.682-4.662 19.254 0l15.937 13.337 20.699 1.838c7.235.643 12.972 6.379 13.614 13.614l1.838 20.699 13.337 15.937c4.662 5.571 4.663 13.683.001 19.254l-13.338 15.938-1.838 20.699c-.643 7.235-6.379 12.972-13.614 13.614l-20.699 1.838-15.937 13.337c-2.786 2.33-6.206 3.496-9.627 3.496z" fill="#fdbf00"/></g><path d="m367.853 158.922-13.337-15.937-1.838-20.699c-.643-7.235-6.379-12.972-13.614-13.614l-20.699-1.838-15.937-13.337c-5.572-4.662-13.682-4.662-19.254 0l-15.937 13.337-11.238.998v121.435l11.238.998 15.937 13.337c2.786 2.331 6.206 3.497 9.627 3.497s6.841-1.166 9.627-3.497l15.937-13.337 20.699-1.838c7.235-.643 12.972-6.379 13.614-13.614l1.838-20.699 13.338-15.938c4.662-5.572 4.661-13.683-.001-19.254z" fill="#ff8856"/><g><path d="m298.438 316.001h-77.24c-44.415 0-80.549-36.135-80.549-80.55s36.134-80.55 80.549-80.55c25.56 0 49.244 12.03 64.329 32.059 4.222-.851 8.536-1.278 12.911-1.278 35.929 0 65.159 29.23 65.159 65.159.001 35.93-29.23 65.16-65.159 65.16z" fill="#fff4f4"/></g><path d="m298.438 185.682c-4.375 0-8.689.428-12.911 1.278-7.835-10.403-17.995-18.642-29.528-24.164v153.205h42.439c35.929 0 65.159-29.23 65.159-65.16.001-35.929-29.23-65.159-65.159-65.159z" fill="#f6efea"/></g>
</symbol>
<symbol id="icon-feature-color-weather" viewBox="0 0 512 512">
<g><g><path clip-rule="evenodd" d="m21.381 22.234h465.702v318.638h-465.702z" fill="#fff4f4" fill-rule="evenodd"/></g><path clip-rule="evenodd" d="m256 22.234h231.083v318.638h-231.083z" fill="#f6efea" fill-rule="evenodd"/><path d="m375.91 482h-30v-76c0-8.284-6.716-15-15-15h-150c-8.284 0-15 6.716-15 15v76h-30c-8.284 0-15 6.716-15 15s6.716 15 15 15h240c8.284 0 15-6.716 15-15s-6.716-15-15-15z" fill="#4793ff"/><path d="m375.91 482h-30v-76c0-8.284-6.716-15-15-15h-74.91v121h119.91c8.284 0 15-6.716 15-15s-6.716-15-15-15z" fill="#525cdd"/><g><path d="m378.26 218.02c-3.42 0-6.841-1.166-9.626-3.496l-14.541-12.169-18.886-1.678c-7.236-.644-12.971-6.379-13.613-13.614l-1.678-18.886-12.168-14.54c-4.663-5.571-4.663-13.683 0-19.254l12.168-14.541 1.678-18.886c.643-7.235 6.378-12.972 13.614-13.614l18.886-1.677 14.541-12.169c5.571-4.66 13.682-4.66 19.253 0l14.541 12.169 18.886 1.677c7.236.643 12.971 6.379 13.614 13.614l1.678 18.887 12.168 14.541c4.662 5.57 4.662 13.682 0 19.253l-12.168 14.54-1.678 18.886c-.643 7.235-6.377 12.971-13.613 13.614l-18.886 1.678-14.541 12.169c-2.788 2.33-6.208 3.496-9.629 3.496z" fill="#ff8856"/></g><g><path d="m383.495 282h-71.723c-41.833 0-75.867-34.034-75.867-75.867s34.034-75.867 75.867-75.867c23.845 0 45.958 11.116 60.183 29.66 3.779-.718 7.633-1.079 11.54-1.079 33.954 0 61.577 27.623 61.577 61.576 0 33.954-27.623 61.577-61.577 61.577z" fill="#f6efea"/></g><g><path d="m190.9 100.001h-115.99c-8.284 0-15-6.716-15-15s6.716-15 15-15h115.99c8.284 0 15 6.716 15 15s-6.716 15-15 15z" fill="#7dd5f4"/></g><g><path d="m190.9 160.001h-115.99c-8.284 0-15-6.716-15-15s6.716-15 15-15h115.99c8.284 0 15 6.716 15 15s-6.716 15-15 15z" fill="#7dd5f4"/></g><g><path d="m190.9 220h-115.99c-8.284 0-15-6.716-15-15s6.716-15 15-15h115.99c8.284 0 15 6.716 15 15s-6.716 15-15 15z" fill="#7dd5f4"/></g><g><path clip-rule="evenodd" d="m74.911 280c8.262 0 15-6.738 15-15s-6.738-15-15-15-15 6.738-15 15c-.001 8.262 6.738 15 15 15z" fill="#bee75e" fill-rule="evenodd"/></g><g><path clip-rule="evenodd" d="m132.911 280c8.262 0 15-6.738 15-15s-6.738-15-15-15-15 6.738-15 15 6.738 15 15 15z" fill="#ff8856" fill-rule="evenodd"/></g><g><path clip-rule="evenodd" d="m191.411 280c8.262 0 15-6.738 15-15s-6.738-15-15-15-15 6.738-15 15c-.001 8.262 6.738 15 15 15z" fill="#ff435b" fill-rule="evenodd"/></g><path clip-rule="evenodd" d="m497 0h-482c-8.284 0-15 6.716-15 15v390.967c0 8.284 6.716 15 15 15h482c8.284 0 15-6.716 15-15v-390.967c0-8.284-6.716-15-15-15zm-15 30v300.966h-452v-300.966z" fill="#00429d" fill-rule="evenodd"/><path d="m383.495 158.847c-3.907 0-7.761.361-11.54 1.079-14.225-18.544-36.337-29.66-60.183-29.66-22.036 0-41.899 9.45-55.772 24.502v102.729c13.873 15.053 33.737 24.503 55.772 24.503h71.723c33.954 0 61.577-27.623 61.577-61.577 0-33.953-27.623-61.576-61.577-61.576z" fill="#eee1dc"/><path clip-rule="evenodd" d="m497 0h-241v30h226v300.966h-226v90.001h241c8.284 0 15-6.716 15-15v-390.967c0-8.284-6.716-15-15-15z" fill="#00347b" fill-rule="evenodd"/></g>
</symbol>

<symbol id="icon-instagram" viewBox="0 0 511 511.9">
<g><path xmlns="http://www.w3.org/2000/svg" d="m510.949219 150.5c-1.199219-27.199219-5.597657-45.898438-11.898438-62.101562-6.5-17.199219-16.5-32.597657-29.601562-45.398438-12.800781-13-28.300781-23.101562-45.300781-29.5-16.296876-6.300781-34.898438-10.699219-62.097657-11.898438-27.402343-1.300781-36.101562-1.601562-105.601562-1.601562s-78.199219.300781-105.5 1.5c-27.199219 1.199219-45.898438 5.601562-62.097657 11.898438-17.203124 6.5-32.601562 16.5-45.402343 29.601562-13 12.800781-23.097657 28.300781-29.5 45.300781-6.300781 16.300781-10.699219 34.898438-11.898438 62.097657-1.300781 27.402343-1.601562 36.101562-1.601562 105.601562s.300781 78.199219 1.5 105.5c1.199219 27.199219 5.601562 45.898438 11.902343 62.101562 6.5 17.199219 16.597657 32.597657 29.597657 45.398438 12.800781 13 28.300781 23.101562 45.300781 29.5 16.300781 6.300781 34.898438 10.699219 62.101562 11.898438 27.296876 1.203124 36 1.5 105.5 1.5s78.199219-.296876 105.5-1.5c27.199219-1.199219 45.898438-5.597657 62.097657-11.898438 34.402343-13.300781 61.601562-40.5 74.902343-74.898438 6.296876-16.300781 10.699219-34.902343 11.898438-62.101562 1.199219-27.300781 1.5-36 1.5-105.5s-.101562-78.199219-1.300781-105.5zm-46.097657 209c-1.101562 25-5.300781 38.5-8.800781 47.5-8.601562 22.300781-26.300781 40-48.601562 48.601562-9 3.5-22.597657 7.699219-47.5 8.796876-27 1.203124-35.097657 1.5-103.398438 1.5s-76.5-.296876-103.402343-1.5c-25-1.097657-38.5-5.296876-47.5-8.796876-11.097657-4.101562-21.199219-10.601562-29.398438-19.101562-8.5-8.300781-15-18.300781-19.101562-29.398438-3.5-9-7.699219-22.601562-8.796876-47.5-1.203124-27-1.5-35.101562-1.5-103.402343s.296876-76.5 1.5-103.398438c1.097657-25 5.296876-38.5 8.796876-47.5 4.101562-11.101562 10.601562-21.199219 19.203124-29.402343 8.296876-8.5 18.296876-15 29.398438-19.097657 9-3.5 22.601562-7.699219 47.5-8.800781 27-1.199219 35.101562-1.5 103.398438-1.5 68.402343 0 76.5.300781 103.402343 1.5 25 1.101562 38.5 5.300781 47.5 8.800781 11.097657 4.097657 21.199219 10.597657 29.398438 19.097657 8.5 8.300781 15 18.300781 19.101562 29.402343 3.5 9 7.699219 22.597657 8.800781 47.5 1.199219 27 1.5 35.097657 1.5 103.398438s-.300781 76.300781-1.5 103.300781zm0 0" fill="#fdfeff" data-original="#000000" style=""/><path xmlns="http://www.w3.org/2000/svg" d="m256.449219 124.5c-72.597657 0-131.5 58.898438-131.5 131.5s58.902343 131.5 131.5 131.5c72.601562 0 131.5-58.898438 131.5-131.5s-58.898438-131.5-131.5-131.5zm0 216.800781c-47.097657 0-85.300781-38.199219-85.300781-85.300781s38.203124-85.300781 85.300781-85.300781c47.101562 0 85.300781 38.199219 85.300781 85.300781s-38.199219 85.300781-85.300781 85.300781zm0 0" fill="#fdfeff" data-original="#000000" style=""/><path xmlns="http://www.w3.org/2000/svg" d="m423.851562 119.300781c0 16.953125-13.746093 30.699219-30.703124 30.699219-16.953126 0-30.699219-13.746094-30.699219-30.699219 0-16.957031 13.746093-30.699219 30.699219-30.699219 16.957031 0 30.703124 13.742188 30.703124 30.699219zm0 0" fill="#fdfeff" data-original="#000000" style=""/></g>
</symbol>

<symbol id="icon-linkedin" viewBox="0 0 24 24">
<g><path xmlns="http://www.w3.org/2000/svg" d="m23.994 24v-.001h.006v-8.802c0-4.306-.927-7.623-5.961-7.623-2.42 0-4.044 1.328-4.707 2.587h-.07v-2.185h-4.773v16.023h4.97v-7.934c0-2.089.396-4.109 2.983-4.109 2.549 0 2.587 2.384 2.587 4.243v7.801z" fill="#fdfeff" data-original="#000000" style=""/><path xmlns="http://www.w3.org/2000/svg" d="m.396 7.977h4.976v16.023h-4.976z" fill="#fdfeff" data-original="#000000" style=""/><path xmlns="http://www.w3.org/2000/svg" d="m2.882 0c-1.591 0-2.882 1.291-2.882 2.882s1.291 2.909 2.882 2.909 2.882-1.318 2.882-2.909c-.001-1.591-1.292-2.882-2.882-2.882z" fill="#fdfeff" data-original="#000000" style=""/></g>
</symbol>

<symbol id="icon-github" viewBox="0 0 512 512">
<g>
<g xmlns="http://www.w3.org/2000/svg">
	<g>
		<path d="M255.968,5.329C114.624,5.329,0,120.401,0,262.353c0,113.536,73.344,209.856,175.104,243.872    c12.8,2.368,17.472-5.568,17.472-12.384c0-6.112-0.224-22.272-0.352-43.712c-71.2,15.52-86.24-34.464-86.24-34.464    c-11.616-29.696-28.416-37.6-28.416-37.6c-23.264-15.936,1.728-15.616,1.728-15.616c25.696,1.824,39.2,26.496,39.2,26.496    c22.848,39.264,59.936,27.936,74.528,21.344c2.304-16.608,8.928-27.936,16.256-34.368    c-56.832-6.496-116.608-28.544-116.608-127.008c0-28.064,9.984-51.008,26.368-68.992c-2.656-6.496-11.424-32.64,2.496-68    c0,0,21.504-6.912,70.4,26.336c20.416-5.696,42.304-8.544,64.096-8.64c21.728,0.128,43.648,2.944,64.096,8.672    c48.864-33.248,70.336-26.336,70.336-26.336c13.952,35.392,5.184,61.504,2.56,68c16.416,17.984,26.304,40.928,26.304,68.992    c0,98.72-59.84,120.448-116.864,126.816c9.184,7.936,17.376,23.616,17.376,47.584c0,34.368-0.32,62.08-0.32,70.496    c0,6.88,4.608,14.88,17.6,12.352C438.72,472.145,512,375.857,512,262.353C512,120.401,397.376,5.329,255.968,5.329z" fill="#fdfeff" data-original="#000000" style=""/>
	</g>
</g>
<g xmlns="http://www.w3.org/2000/svg">
</g>
<g xmlns="http://www.w3.org/2000/svg">
</g>
<g xmlns="http://www.w3.org/2000/svg">
</g>
<g xmlns="http://www.w3.org/2000/svg">
</g>
<g xmlns="http://www.w3.org/2000/svg">
</g>
<g xmlns="http://www.w3.org/2000/svg">
</g>
<g xmlns="http://www.w3.org/2000/svg">
</g>
<g xmlns="http://www.w3.org/2000/svg">
</g>
<g xmlns="http://www.w3.org/2000/svg">
</g>
<g xmlns="http://www.w3.org/2000/svg">
</g>
<g xmlns="http://www.w3.org/2000/svg">
</g>
<g xmlns="http://www.w3.org/2000/svg">
</g>
<g xmlns="http://www.w3.org/2000/svg">
</g>
<g xmlns="http://www.w3.org/2000/svg">
</g>
<g xmlns="http://www.w3.org/2000/svg">
</g>
</g>
</symbol>

<symbol id="icon-load" viewBox="0 0 200 200">
<path d="M44.6,-72C56.2,-62,62.8,-46.9,67.4,-32.2C72,-17.4,74.5,-3.2,71.6,9.6C68.6,22.3,60.2,33.6,50.7,43.2C41.2,52.7,30.6,60.5,18.4,65.2C6.3,69.9,-7.6,71.4,-19.6,67.5C-31.7,63.7,-41.9,54.4,-52,44.3C-62.1,34.1,-71.9,22.9,-75.9,9.6C-79.9,-3.8,-78,-19.3,-70.2,-30.3C-62.5,-41.3,-48.7,-47.9,-36,-57.4C-23.3,-66.9,-11.7,-79.4,2.4,-83.2C16.5,-87,33.1,-82.1,44.6,-72Z" transform="translate(100 100)" />
</symbol>

<symbol id="icon-blob-search" viewBox="0 0 200 200">
<path fill="#87C0CD" d="M42.5,-74.9C55.5,-66,66.9,-55.6,72.9,-42.9C78.9,-30.1,79.5,-15.1,79.6,0C79.6,15.1,79,30.2,71.9,41.1C64.8,51.9,51.2,58.5,38.2,63.7C25.1,69,12.5,72.8,-0.8,74.2C-14.2,75.7,-28.4,74.8,-42,69.8C-55.6,64.9,-68.5,56,-76.5,43.7C-84.5,31.4,-87.6,15.7,-86.8,0.5C-86,-14.7,-81.3,-29.5,-73.1,-41.5C-64.9,-53.4,-53.2,-62.7,-40.4,-71.7C-27.7,-80.8,-13.8,-89.7,0.4,-90.5C14.7,-91.2,29.4,-83.8,42.5,-74.9Z" transform="translate(100 100)" />
</symbol>

<symbol id="icon-left-arrow" viewBox="0 0 103.537 103.537">
<g>
<g xmlns="http://www.w3.org/2000/svg">
	<g>
		<path d="M103.048,12.002c-1.445-3.771-5.679-5.649-9.438-4.207L4.692,41.9c-2.753,1.055-4.603,3.662-4.688,6.609    c-0.087,2.948,1.608,5.656,4.295,6.872l88.917,40.196c0.978,0.44,2,0.65,3.006,0.65c2.784,0,5.442-1.6,6.665-4.302    c1.661-3.678,0.029-8.007-3.648-9.671L26.273,49.277l72.568-27.834C102.61,19.998,104.496,15.771,103.048,12.002z" fill="#113f67" data-original="#000000" style=""/>
	</g>
</g>
<g xmlns="http://www.w3.org/2000/svg">
</g>
<g xmlns="http://www.w3.org/2000/svg">
</g>
<g xmlns="http://www.w3.org/2000/svg">
</g>
<g xmlns="http://www.w3.org/2000/svg">
</g>
<g xmlns="http://www.w3.org/2000/svg">
</g>
<g xmlns="http://www.w3.org/2000/svg">
</g>
<g xmlns="http://www.w3.org/2000/svg">
</g>
<g xmlns="http://www.w3.org/2000/svg">
</g>
<g xmlns="http://www.w3.org/2000/svg">
</g>
<g xmlns="http://www.w3.org/2000/svg">
</g>
<g xmlns="http://www.w3.org/2000/svg">
</g>
<g xmlns="http://www.w3.org/2000/svg">
</g>
<g xmlns="http://www.w3.org/2000/svg">
</g>
<g xmlns="http://www.w3.org/2000/svg">
</g>
<g xmlns="http://www.w3.org/2000/svg">
</g>
</g>
</symbol>

<symbol id="icon-display-cloud" viewBox="0 0 512 512">
<g><g><path d="m430.213 335.363c-53.078 0-176.237-38.768-230.855-87.113-20.144-17.83-30.358-36.193-30.358-54.578 0-40.804 33.196-74 74-74 6.994 0 13.895.981 20.521 2.891 10.02-29.137 37.635-49.829 69.979-49.829 26.73 0 51.181 14.536 64.21 37.205 2.089-.177 4.188-.266 6.29-.266 40.804 0 74 33.196 74 74 0 4.799-.455 9.536-1.358 14.179 21.588 13.289 35.358 37.189 35.358 63.101 0 19.443-7.825 37.593-22.034 51.105-12.957 12.322-30.765 20.414-50.145 22.784-2.865.35-6.084.521-9.608.521z" fill="#eee1dc"/></g><path d="m476.642 197.851c.903-4.644 1.358-9.38 1.358-14.179 0-40.804-33.196-74-74-74-2.103 0-4.201.089-6.29.266-11.882-20.673-33.264-34.576-57.21-36.865v245.167c35.258 10.769 68.227 17.123 89.713 17.123 3.524 0 6.743-.171 9.608-.521 19.38-2.37 37.188-10.461 50.145-22.784 14.209-13.513 22.034-31.662 22.034-51.105 0-25.912-13.77-49.812-35.358-63.102z" fill="#e0d2cd"/><g><path d="m213.132 439.267c-17.088 0-33.811-5.901-47.086-16.617-6.865-5.541-12.676-12.251-17.186-19.735-9.734 5.94-21.034 9.222-32.667 9.222-27.949 0-52.022-18.594-59.934-44.321-12.9-1.336-25.2-6.649-35.083-15.379-13.457-11.887-21.176-29.006-21.176-46.968 0-32.457 24.797-59.23 56.439-62.375 3.25-10.25 9.118-19.556 17.165-27.011 11.618-10.764 26.743-16.691 42.589-16.691 11.524 0 22.731 3.226 32.409 9.067 4.496-7.577 10.322-14.376 17.228-19.993 13.314-10.83 30.114-16.794 47.303-16.794s33.989 5.964 47.303 16.794c6.906 5.617 12.731 12.417 17.228 19.993 9.678-5.84 20.885-9.067 32.409-9.067 15.846 0 30.971 5.928 42.589 16.691 8.05 7.458 13.919 16.766 17.168 27.021 12.956 1.305 25.313 6.62 35.239 15.379 13.472 11.888 21.198 29.014 21.198 46.986 0 17.962-7.719 35.081-21.177 46.968-9.882 8.729-22.183 14.042-35.083 15.378-7.912 25.727-31.986 44.321-59.934 44.321-11.633 0-22.934-3.283-32.667-9.222-4.51 7.484-10.321 14.194-17.186 19.735-13.277 10.716-29.999 16.618-47.088 16.618z" fill="#fff4f4"/></g><path d="m405.067 258.483c-9.926-8.759-22.283-14.074-35.239-15.379-3.249-10.255-9.118-19.563-17.168-27.021-11.618-10.764-26.743-16.691-42.589-16.691-11.523 0-22.731 3.227-32.409 9.067-4.496-7.577-10.321-14.376-17.228-19.993-13.314-10.83-30.114-16.794-47.303-16.794v267.595c17.088 0 33.811-5.901 47.086-16.617 6.865-5.541 12.676-12.251 17.186-19.735 9.733 5.939 21.034 9.222 32.667 9.222 27.948 0 52.022-18.594 59.934-44.321 12.899-1.336 25.2-6.65 35.083-15.378 13.458-11.887 21.177-29.006 21.177-46.968.001-17.973-7.725-35.099-21.197-46.987z" fill="#f6efea"/></g>
</symbol>

<symbol id="icon-display-clear" viewBox="0 0 512 512">
<g><g><path d="m256 395c-76.645 0-139-62.355-139-139s62.355-139 139-139 139 62.355 139 139-62.355 139-139 139z" fill="#fdbf00"/></g><g><path d="m256 81.643c-8.284 0-15-6.716-15-15v-51.643c0-8.284 6.716-15 15-15s15 6.716 15 15v51.643c0 8.284-6.716 15-15 15z" fill="#fdbf00"/></g><g><path d="m497 271h-51.643c-8.284 0-15-6.716-15-15s6.716-15 15-15h51.643c8.284 0 15 6.716 15 15s-6.716 15-15 15z" fill="#ff8856"/></g><g><path d="m256 512c-8.284 0-15-6.716-15-15v-51.643c0-8.284 6.716-15 15-15s15 6.716 15 15v51.643c0 8.284-6.716 15-15 15z" fill="#fdbf00"/></g><g><path d="m66.643 271h-51.643c-8.284 0-15-6.716-15-15s6.716-15 15-15h51.643c8.284 0 15 6.716 15 15s-6.716 15-15 15z" fill="#fdbf00"/></g><g><path d="m389.896 137.104c-3.839 0-7.678-1.464-10.606-4.394-5.858-5.857-5.858-15.355 0-21.213l36.517-36.517c5.857-5.858 15.355-5.858 21.213 0 5.858 5.857 5.858 15.355 0 21.213l-36.517 36.517c-2.929 2.93-6.768 4.394-10.607 4.394z" fill="#ff8856"/></g><g><path d="m426.413 441.413c-3.839 0-7.678-1.464-10.606-4.393l-36.518-36.517c-5.858-5.857-5.858-15.355 0-21.213 5.857-5.857 15.355-5.858 21.213 0l36.518 36.517c5.858 5.857 5.858 15.355 0 21.213-2.929 2.928-6.768 4.393-10.607 4.393z" fill="#ff8856"/></g><g><path d="m85.587 441.413c-3.839 0-7.678-1.464-10.606-4.394-5.858-5.857-5.858-15.355 0-21.213l36.517-36.517c5.857-5.858 15.355-5.858 21.213 0 5.858 5.857 5.858 15.355 0 21.213l-36.517 36.517c-2.929 2.929-6.768 4.394-10.607 4.394z" fill="#fdbf00"/></g><g><path d="m122.104 137.104c-3.839 0-7.678-1.464-10.606-4.394l-36.518-36.517c-5.858-5.857-5.858-15.355 0-21.213 5.857-5.858 15.355-5.858 21.213 0l36.518 36.517c5.858 5.857 5.858 15.355 0 21.213-2.929 2.93-6.768 4.394-10.607 4.394z" fill="#fdbf00"/></g><g><path d="m328.663 96.146c-1.919 0-3.868-.37-5.751-1.152-7.649-3.179-11.273-11.958-8.095-19.608l19.818-47.688c3.181-7.651 11.959-11.273 19.608-8.095 7.649 3.179 11.273 11.958 8.095 19.608l-19.818 47.688c-2.397 5.767-7.978 9.247-13.857 9.247z" fill="#ff8856"/></g><g><path d="m478.541 363.492c-1.919 0-3.868-.37-5.751-1.152l-47.688-19.818c-7.649-3.179-11.273-11.958-8.095-19.608 3.18-7.651 11.957-11.274 19.608-8.095l47.688 19.818c7.65 3.179 11.274 11.958 8.096 19.608-2.398 5.767-7.979 9.247-13.858 9.247z" fill="#ff8856"/></g><g><path d="m163.507 493.551c-1.919 0-3.868-.37-5.751-1.152-7.649-3.179-11.273-11.958-8.095-19.608l19.818-47.688c3.18-7.651 11.957-11.273 19.608-8.095 7.649 3.179 11.273 11.958 8.095 19.608l-19.818 47.688c-2.397 5.767-7.978 9.247-13.857 9.247z" fill="#fdbf00"/></g><g><path d="m81.136 198.334c-1.919 0-3.868-.37-5.751-1.152l-47.688-19.818c-7.65-3.179-11.274-11.958-8.096-19.608 3.18-7.65 11.958-11.272 19.608-8.095l47.688 19.818c7.649 3.179 11.273 11.958 8.095 19.608-2.396 5.768-7.977 9.247-13.856 9.247z" fill="#fdbf00"/></g><g><path d="m431.034 198.745c-5.893 0-11.482-3.495-13.871-9.28-3.161-7.658.484-16.428 8.142-19.589l47.734-19.707c7.655-3.161 16.427.483 19.589 8.141 3.161 7.658-.484 16.428-8.142 19.589l-47.734 19.707c-1.872.773-3.811 1.139-5.718 1.139z" fill="#ff8856"/></g><g><path d="m347.972 493.767c-5.893 0-11.482-3.495-13.871-9.28l-19.707-47.735c-3.161-7.658.483-16.428 8.142-19.589 7.656-3.161 16.428.483 19.589 8.141l19.707 47.735c3.161 7.657-.483 16.428-8.142 19.589-1.873.773-3.811 1.139-5.718 1.139z" fill="#ff8856"/></g><g><path d="m33.242 362.969c-5.894 0-11.482-3.495-13.871-9.28-3.161-7.658.484-16.428 8.142-19.589l47.735-19.707c7.66-3.163 16.428.484 19.589 8.141s-.484 16.427-8.142 19.588l-47.735 19.708c-1.872.773-3.812 1.139-5.718 1.139z" fill="#fdbf00"/></g><g><path d="m183.747 95.976c-5.893 0-11.482-3.495-13.871-9.28l-19.707-47.735c-3.161-7.657.483-16.428 8.142-19.589 7.655-3.161 16.427.483 19.589 8.141l19.707 47.735c3.161 7.658-.483 16.428-8.142 19.589-1.872.772-3.811 1.139-5.718 1.139z" fill="#fdbf00"/></g><g fill="#ff8856"><path d="m256 0v81.643c8.284 0 15-6.716 15-15v-51.643c0-8.284-6.716-15-15-15z"/><path d="m256 117v278c76.645 0 139-62.355 139-139s-62.355-139-139-139z"/><path d="m256 430.357v81.643c8.284 0 15-6.716 15-15v-51.643c0-8.284-6.716-15-15-15z"/></g></g>
</symbol>

<symbol id="icon-display-snow" viewBox="0 0 512.001 512.001">
<g><path d="m312.5 455c0-8.284-6.716-15-15-15h-5.287l3.739-3.739c5.858-5.858 5.858-15.355 0-21.213-5.857-5.858-15.355-5.858-21.213 0l-3.739 3.74v-5.787c0-8.284-6.716-15-15-15s-15 6.716-15 15v5.787l-4.092-4.092c-5.857-5.858-15.355-5.858-21.213 0s-5.858 15.355 0 21.213l4.092 4.092h-5.287c-8.284 0-15 6.716-15 15s6.716 15 15 15h5.287l-3.739 3.739c-5.858 5.858-5.858 15.355 0 21.213 2.929 2.929 6.768 4.394 10.606 4.394s7.678-1.464 10.606-4.394l3.739-3.739v5.786c0 8.284 6.716 15 15 15s15-6.716 15-15v-5.787l4.092 4.092c2.929 2.929 6.768 4.394 10.606 4.394s7.678-1.464 10.606-4.394c5.858-5.858 5.858-15.355 0-21.213l-4.09-4.092h5.287c8.285 0 15-6.715 15-15z" fill="#7dd5f4"/><path d="m113 360c0-8.284-6.716-15-15-15h-5.287l3.739-3.739c5.858-5.858 5.858-15.355 0-21.213-5.857-5.858-15.355-5.858-21.213 0l-3.739 3.739v-5.787c0-8.284-6.716-15-15-15s-15 6.716-15 15v5.787l-4.092-4.092c-5.857-5.858-15.355-5.858-21.213 0s-5.858 15.355 0 21.213l4.093 4.092h-5.288c-8.284 0-15 6.716-15 15s6.716 15 15 15h5.287l-3.739 3.739c-5.858 5.858-5.858 15.355 0 21.213 2.929 2.929 6.768 4.394 10.606 4.394s7.678-1.464 10.606-4.394l3.739-3.739v5.787c0 8.284 6.716 15 15 15s15-6.716 15-15v-5.787l4.092 4.092c2.929 2.929 6.768 4.394 10.606 4.394s7.678-1.464 10.606-4.394c5.858-5.858 5.858-15.355 0-21.213l-4.09-4.092h5.287c8.285 0 15-6.715 15-15z" fill="#7dd5f4"/><path d="m512 360c0-8.284-6.716-15-15-15h-5.287l3.739-3.739c5.858-5.858 5.858-15.355 0-21.213-5.857-5.858-15.355-5.858-21.213 0l-3.739 3.739v-5.787c0-8.284-6.716-15-15-15s-15 6.716-15 15v5.787l-4.092-4.092c-5.857-5.858-15.355-5.858-21.213 0s-5.858 15.355 0 21.213l4.092 4.092h-5.287c-8.284 0-15 6.716-15 15s6.716 15 15 15h5.287l-3.739 3.739c-5.858 5.858-5.858 15.355 0 21.213 2.929 2.929 6.768 4.394 10.606 4.394s7.678-1.464 10.606-4.394l3.739-3.739v5.787c0 8.284 6.716 15 15 15s15-6.716 15-15v-5.787l4.092 4.092c2.929 2.929 6.768 4.394 10.606 4.394s7.678-1.464 10.606-4.394c5.858-5.858 5.858-15.355 0-21.213l-4.09-4.092h5.287c8.285 0 15-6.715 15-15z" fill="#4793ff"/><g><path clip-rule="evenodd" d="m172.501 374.001c8.262 0 15-6.739 15-15 0-8.262-6.738-15-15-15s-15 6.738-15 15c-.001 8.261 6.738 15 15 15z" fill="#fff4f4" fill-rule="evenodd"/></g><g><path clip-rule="evenodd" d="m339.501 374.001c8.262 0 15-6.739 15-15 0-8.262-6.738-15-15-15s-15 6.738-15 15c-.001 8.261 6.738 15 15 15z" fill="#fff4f4" fill-rule="evenodd"/></g><g><path clip-rule="evenodd" d="m91.001 512c8.262 0 15-6.738 15-15s-6.738-15-15-15-15 6.738-15 15 6.738 15 15 15z" fill="#fff4f4" fill-rule="evenodd"/></g><g><path clip-rule="evenodd" d="m421.001 512c8.262 0 15-6.738 15-15s-6.738-15-15-15-15 6.738-15 15 6.738 15 15 15z" fill="#fff4f4" fill-rule="evenodd"/></g><g><path d="m256 319.001c-20.046 0-39.663-6.922-55.235-19.492-8.929-7.207-16.338-16.1-21.833-26.045-11.941 8.049-26.166 12.537-40.845 12.537-33.302 0-61.878-22.662-70.406-53.701-15.809-1.165-30.959-7.449-43.02-18.102-15.672-13.843-24.661-33.78-24.661-54.698 0-38.53 30.006-70.184 67.877-72.822 3.629-12.751 10.702-24.341 20.612-33.521 13.53-12.535 31.145-19.438 49.598-19.438 14.554 0 28.673 4.418 40.559 12.347 5.467-10.061 12.887-19.063 21.864-26.365 15.618-12.704 35.325-19.701 55.49-19.701s39.872 6.997 55.49 19.7c8.977 7.302 16.397 16.304 21.865 26.365 11.885-7.929 26.004-12.347 40.558-12.347 18.454 0 36.068 6.903 49.598 19.438 9.912 9.183 16.985 20.774 20.614 33.53 15.868 1.126 31.082 7.411 43.19 18.095 15.688 13.844 24.686 33.788 24.686 54.718 0 20.918-8.989 40.854-24.661 54.697-12.06 10.652-27.213 16.937-43.021 18.102-8.528 31.039-37.104 53.701-70.406 53.701-14.679 0-28.904-4.488-40.845-12.537-5.494 9.945-12.903 18.838-21.832 26.045-15.573 12.572-35.189 19.494-55.236 19.494z" fill="#fff4f4"/></g><path d="m487.315 104.782c-12.108-10.685-27.322-16.969-43.19-18.095-3.629-12.756-10.703-24.348-20.614-33.53-13.53-12.535-31.145-19.438-49.598-19.438-14.554 0-28.673 4.418-40.558 12.347-5.467-10.061-12.888-19.063-21.865-26.365-15.618-12.704-35.324-19.701-55.49-19.701v319c20.046 0 39.663-6.922 55.235-19.492 8.929-7.207 16.338-16.1 21.832-26.045 11.941 8.049 26.166 12.537 40.845 12.537 33.302 0 61.878-22.662 70.406-53.701 15.808-1.165 30.96-7.45 43.021-18.102 15.672-13.843 24.661-33.779 24.661-54.697.001-20.93-8.997-40.874-24.685-54.718z" fill="#f6efea"/><path d="m312.5 455c0-8.284-6.716-15-15-15h-5.287l3.739-3.739c5.858-5.858 5.858-15.355 0-21.213-5.857-5.858-15.355-5.858-21.213 0l-3.739 3.74v-5.787c0-8.284-6.716-15-15-15v114c8.284 0 15-6.716 15-15v-5.787l4.092 4.092c2.929 2.929 6.768 4.394 10.606 4.394s7.678-1.464 10.606-4.394c5.858-5.858 5.858-15.355 0-21.213l-4.091-4.093h5.287c8.285 0 15-6.715 15-15z" fill="#4793ff"/></g>
</symbol>

<symbol id="icon-display-rain" viewBox="0 0 512.001 512.001">
<g><g><path d="m256 512c-24.813 0-45-20.187-45-45 0-9.884 5.295-24.503 15.738-43.453 3.603-6.537 7.479-12.913 10.917-17.953 4.345-6.372 9.27-13.594 18.345-13.594s14.001 7.222 18.346 13.594c3.437 5.04 7.314 11.416 10.917 17.953 10.443 18.95 15.738 33.569 15.738 43.453 0 24.813-20.187 45-45.001 45z" fill="#fff4f4"/></g><g><path d="m102.085 421.001c-24.813 0-45-20.187-45-45 0-9.884 5.295-24.503 15.738-43.453 3.603-6.537 7.479-12.913 10.917-17.953 4.344-6.372 9.27-13.595 18.345-13.595s14.001 7.222 18.346 13.594c3.438 5.041 7.314 11.416 10.917 17.953 10.443 18.95 15.738 33.569 15.738 43.453-.001 24.814-20.188 45.001-45.001 45.001z" fill="#fff4f4"/></g><g><path d="m409.916 421.001c-24.813 0-45-20.187-45-45 0-9.884 5.295-24.503 15.738-43.453 3.603-6.537 7.479-12.913 10.917-17.953 4.345-6.372 9.27-13.594 18.346-13.594s14.001 7.222 18.346 13.594c3.437 5.04 7.314 11.416 10.917 17.953 10.443 18.95 15.738 33.569 15.738 43.453-.002 24.813-20.189 45-45.002 45z" fill="#f6efea"/></g><g><path d="m256 319.001c-20.046 0-39.663-6.922-55.235-19.492-8.929-7.207-16.338-16.1-21.833-26.045-11.941 8.049-26.166 12.537-40.845 12.537-33.302 0-61.878-22.662-70.406-53.701-15.809-1.165-30.959-7.449-43.02-18.102-15.672-13.843-24.661-33.78-24.661-54.698 0-38.53 30.006-70.184 67.877-72.822 3.629-12.751 10.702-24.341 20.612-33.521 13.53-12.535 31.145-19.438 49.598-19.438 14.554 0 28.673 4.418 40.559 12.347 5.467-10.061 12.887-19.063 21.864-26.365 15.618-12.704 35.325-19.701 55.49-19.701s39.872 6.997 55.49 19.7c8.977 7.302 16.397 16.304 21.865 26.365 11.885-7.929 26.004-12.347 40.558-12.347 18.454 0 36.068 6.903 49.598 19.438 9.912 9.183 16.985 20.774 20.614 33.53 15.868 1.126 31.082 7.411 43.19 18.095 15.688 13.844 24.686 33.788 24.686 54.718 0 20.918-8.989 40.854-24.661 54.697-12.06 10.652-27.213 16.937-43.021 18.102-8.528 31.039-37.104 53.701-70.406 53.701-14.679 0-28.904-4.488-40.845-12.537-5.494 9.945-12.903 18.838-21.832 26.045-15.573 12.572-35.189 19.494-55.236 19.494z" fill="#fff4f4"/></g><g fill="#f6efea"><path d="m487.315 104.782c-12.108-10.685-27.322-16.969-43.19-18.095-3.629-12.756-10.703-24.348-20.614-33.53-13.53-12.535-31.145-19.438-49.598-19.438-14.554 0-28.673 4.418-40.558 12.347-5.467-10.061-12.888-19.063-21.865-26.365-15.618-12.704-35.324-19.701-55.49-19.701v319c20.046 0 39.663-6.922 55.235-19.492 8.929-7.207 16.338-16.1 21.832-26.045 11.941 8.049 26.166 12.537 40.845 12.537 33.302 0 61.878-22.662 70.406-53.701 15.808-1.165 30.96-7.45 43.021-18.102 15.672-13.843 24.661-33.779 24.661-54.697.001-20.93-8.997-40.874-24.685-54.718z"/><path d="m285.263 423.547c-3.603-6.537-7.479-12.913-10.917-17.953-4.345-6.372-9.27-13.594-18.346-13.594v120c24.813 0 45-20.187 45-45 .001-9.884-5.294-24.503-15.737-43.453z"/></g></g>
</symbol>

<symbol id="icon-display-mist" viewBox="0 0 512.5 512.5">
<g><g><path d="m374.413 320.25c-.909 0-1.816-.083-2.71-.247l-291.545-53.555c-19.992 1.813-39.914-4.678-54.997-18.001-15.673-13.843-24.661-33.779-24.661-54.697 0-38.53 30.006-70.184 67.877-72.822 3.629-12.751 10.702-24.341 20.612-33.522 13.53-12.535 31.145-19.438 49.598-19.438 14.554 0 28.673 4.417 40.558 12.347 5.467-10.061 12.888-19.063 21.865-26.365 15.618-12.704 35.325-19.7 55.49-19.7s39.872 6.996 55.49 19.7c8.977 7.302 16.397 16.304 21.865 26.365 11.885-7.93 26.004-12.347 40.558-12.347 18.454 0 36.068 6.903 49.598 19.438 9.912 9.183 16.986 20.775 20.615 33.53 15.867 1.126 31.082 7.411 43.189 18.096 15.688 13.844 24.686 33.789 24.686 54.718 0 20.918-8.989 40.854-24.661 54.697-12.06 10.652-27.213 16.937-43.021 18.102-8.53 31.036-37.107 53.701-70.406 53.701z" fill="#fff4f4"/></g><path d="m487.815 139.032c-12.108-10.685-27.322-16.969-43.189-18.096-3.629-12.755-10.703-24.348-20.615-33.53-13.53-12.535-31.145-19.438-49.598-19.438-14.554 0-28.673 4.417-40.558 12.347-5.467-10.061-12.888-19.063-21.865-26.365-15.618-12.704-35.325-19.7-55.49-19.7v264.591l115.203 21.162c.894.165 1.801.247 2.71.247 33.3 0 61.876-22.666 70.406-53.701 15.808-1.165 30.96-7.45 43.021-18.102 15.672-13.843 24.661-33.779 24.661-54.697-.001-20.929-8.998-40.874-24.686-54.718z" fill="#f6efea"/><g><path d="m403.474 478.25h-134.152c-20.678 0-37.5-16.822-37.5-37.5 0-7.899 2.486-15.35 6.8-21.5h-201.122c-20.678 0-37.5-16.822-37.5-37.5 0-20.677 16.822-37.5 37.5-37.5h94.017c-4.718-6.271-7.518-14.065-7.518-22.5 0-8.293 2.8-16.07 7.525-22.368h-44.024c-20.677 0-37.5-16.822-37.5-37.5s16.822-37.5 37.5-37.5h226c20.678 0 37.5 16.822 37.5 37.5 0 8.293-2.8 16.07-7.525 22.368h131.025c20.678 0 37.5 16.822 37.5 37.5s-16.822 37.5-37.5 37.5h-125.865c4.718 6.271 7.518 14.065 7.518 22.5 0 7.899-2.486 15.351-6.8 21.5h54.122c20.678 0 37.5 16.822 37.5 37.5-.001 20.678-16.823 37.5-37.501 37.5z" fill="#f6efea"/></g><path d="m474.5 284.251h-131.024c4.725-6.298 7.525-14.074 7.525-22.368 0-20.678-16.822-37.5-37.5-37.5h-57v251.608c4.002 1.461 8.32 2.259 12.822 2.259h134.152c20.678 0 37.5-16.822 37.5-37.5 0-20.677-16.822-37.5-37.5-37.5h-54.122c4.314-6.15 6.8-13.601 6.8-21.5 0-8.434-2.8-16.228-7.518-22.5h125.865c20.678 0 37.5-16.822 37.5-37.5s-16.822-37.499-37.5-37.499z" fill="#eee1dc"/></g>
</symbol>

<symbol id="icon-display-storm" viewBox="0 0 512.001 512.001">
<g><g><path d="m256 319.251c-20.046 0-39.663-6.922-55.235-19.492-8.929-7.207-16.338-16.1-21.833-26.045-11.941 8.049-26.166 12.537-40.845 12.537-33.302 0-61.878-22.662-70.406-53.701-15.809-1.165-30.959-7.449-43.02-18.102-15.672-13.843-24.661-33.78-24.661-54.698 0-38.53 30.006-70.184 67.877-72.822 3.629-12.751 10.702-24.341 20.612-33.521 13.53-12.535 31.145-19.438 49.598-19.438 14.554 0 28.673 4.418 40.559 12.347 5.467-10.061 12.887-19.063 21.864-26.365 15.618-12.704 35.325-19.701 55.49-19.701s39.872 6.997 55.49 19.7c8.977 7.302 16.397 16.304 21.865 26.365 11.885-7.929 26.004-12.347 40.558-12.347 18.454 0 36.068 6.903 49.598 19.438 9.912 9.183 16.985 20.774 20.614 33.53 15.868 1.126 31.082 7.411 43.19 18.095 15.688 13.844 24.686 33.788 24.686 54.718 0 20.918-8.989 40.854-24.661 54.697-12.06 10.652-27.213 16.937-43.021 18.102-8.528 31.039-37.104 53.701-70.406 53.701-14.679 0-28.904-4.488-40.845-12.537-5.494 9.945-12.903 18.838-21.832 26.045-15.573 12.572-35.189 19.494-55.236 19.494z" fill="#fff4f4"/></g><path d="m487.315 105.032c-12.108-10.685-27.322-16.969-43.19-18.095-3.629-12.756-10.703-24.348-20.614-33.53-13.53-12.535-31.145-19.438-49.598-19.438-14.554 0-28.673 4.418-40.558 12.347-5.467-10.061-12.888-19.063-21.865-26.365-15.618-12.704-35.324-19.701-55.49-19.701v319c20.046 0 39.663-6.922 55.235-19.492 8.929-7.207 16.338-16.1 21.832-26.045 11.941 8.049 26.166 12.537 40.845 12.537 33.302 0 61.878-22.662 70.406-53.701 15.808-1.165 30.96-7.45 43.021-18.102 15.672-13.843 24.661-33.779 24.661-54.697.001-20.93-8.997-40.874-24.685-54.718z" fill="#f6efea"/><g><path d="m129.087 436.726c-1.78 0-3.58-.317-5.317-.977-6.25-2.372-10.176-8.592-9.628-15.254l7.629-92.74-61.794-17.467c-4.816-1.361-8.636-5.035-10.185-9.794-1.548-4.759-.62-9.977 2.473-13.911l135.313-172.102c4.425-5.627 12.209-7.346 18.593-4.099 6.382 3.246 9.579 10.549 7.637 17.44l-32.021 113.568 63.018 16.519c4.831 1.267 8.715 4.854 10.359 9.569 1.645 4.716.835 9.94-2.16 13.937l-111.91 149.306c-2.895 3.862-7.383 6.005-12.007 6.005z" fill="#fdbf00"/></g><g><path d="m256 511.75c-24.813 0-45-20.187-45-45 0-9.884 5.295-24.504 15.738-43.453 3.602-6.537 7.479-12.913 10.916-17.953 4.345-6.372 9.27-13.594 18.346-13.594s14.001 7.222 18.346 13.594c3.438 5.04 7.314 11.416 10.916 17.953 10.444 18.95 15.738 33.57 15.738 43.453 0 24.813-20.186 45-45 45z" fill="#fff4f4"/></g><g><path d="m391 440.75c-24.813 0-45-20.187-45-45 0-9.884 5.295-24.503 15.738-43.453 3.602-6.537 7.479-12.913 10.916-17.953 4.345-6.372 9.27-13.594 18.346-13.594s14.001 7.222 18.346 13.594c3.438 5.041 7.314 11.416 10.916 17.953 10.444 18.95 15.738 33.57 15.738 43.453 0 24.813-20.186 45-45 45z" fill="#f6efea"/></g><path d="m285.262 423.297c-3.602-6.537-7.479-12.913-10.916-17.953-4.345-6.372-9.27-13.594-18.346-13.594v120c24.813 0 45-20.187 45-45 0-9.883-5.294-24.503-15.738-43.453z" fill="#f6efea"/></g>
</symbol>

<symbol id="icon-display-wind" viewBox="0 0 512 512">
<g><g xmlns="http://www.w3.org/2000/svg"><path d="m405.051 42.294c-24.259 0-48.037 8.364-66.953 23.551-6.46 5.187-7.492 14.627-2.307 21.087 5.187 6.459 14.628 7.493 21.088 2.306 13.61-10.927 30.718-16.944 48.172-16.944 42.43 0 76.949 34.519 76.949 76.949s-34.52 76.949-76.949 76.949h-282.052c-8.284 0-15 6.716-15 15s6.716 15 15 15h282.052c58.972 0 106.949-47.977 106.949-106.949s-47.978-106.949-106.949-106.949z" fill="#7dd5f4" data-original="#fff4f4" style="" class=""/><g><path d="m240.499 196.293h-146.237c-8.284 0-15-6.716-15-15s6.716-15 15-15h146.237c8.285 0 15 6.716 15 15s-6.716 15-15 15z" fill="#7dd5f4" data-original="#fff4f4" style="" class=""/></g><path d="m250.295 286.294h-235.295c-8.284 0-15 6.716-15 15s6.716 15 15 15h235.295c34.025 0 61.707 27.681 61.707 61.706s-27.682 61.706-61.707 61.706c-13.997 0-27.715-4.826-38.63-13.588-6.459-5.186-15.9-4.154-21.087 2.306s-4.154 15.901 2.306 21.087c16.221 13.022 36.61 20.194 57.411 20.194 50.567 0 91.707-41.139 91.707-91.706s-41.14-91.705-91.707-91.705z" fill="#7dd5f4" data-original="#fff4f4" style="" class=""/><g><path d="m35.235 196.293h-20.235c-8.284 0-15-6.716-15-15s6.716-15 15-15h20.235c8.284 0 15 6.716 15 15s-6.716 15-15 15z" fill="#7dd5f4" data-original="#fff4f4" style="" class=""/></g><g><path d="m181 376.001h-90c-8.284 0-15-6.716-15-15s6.716-15 15-15h90c8.284 0 15 6.716 15 15s-6.715 15-15 15z" fill="#7dd5f4" data-original="#fff4f4" style="" class=""/></g><g fill="#f6efea"><path d="m405.051 42.294c-24.259 0-48.037 8.364-66.953 23.551-6.46 5.187-7.492 14.627-2.307 21.087 5.187 6.459 14.628 7.493 21.088 2.306 13.61-10.927 30.718-16.944 48.172-16.944 42.43 0 76.949 34.519 76.949 76.949s-34.52 76.949-76.949 76.949h-149.553v30h149.553c58.972 0 106.949-47.977 106.949-106.949s-47.978-106.949-106.949-106.949z" fill="#4793ff" data-original="#f6efea" style="" class=""/><path d="m255.498 286.445v30.085c31.597 2.653 56.504 29.199 56.504 61.471s-24.907 58.818-56.504 61.471v30.085c48.155-2.707 86.504-42.735 86.504-91.555s-38.349-88.85-86.504-91.557z" fill="#4793ff" data-original="#f6efea" style="" class=""/></g></g></g>
</symbol>

<symbol id="icon-display-humidity" viewBox="0 0 511.998 511.998">
<g><g><path d="m399.297 348.641c-53.598 0-97.203-43.604-97.203-97.202 0-30.492 24.169-76.407 38.577-101.063 9.546-16.338 19.751-31.784 28.735-43.495 13.244-17.264 21.065-23.383 29.891-23.383s16.647 6.119 29.891 23.383c8.983 11.711 19.188 27.157 28.735 43.495 14.407 24.655 38.577 70.57 38.577 101.063-.001 53.597-43.606 97.202-97.203 97.202z" fill="#525cdd"/></g><g><path d="m198.999 511.998c-101.182 0-183.5-82.317-183.5-183.5 0-60.987 53.795-159.633 76.924-199.214 19.247-32.938 39.773-64.018 57.799-87.517 29.565-38.539 40.68-41.767 48.777-41.767s19.212 3.228 48.776 41.768c18.026 23.499 38.553 54.579 57.8 87.517 23.128 39.581 76.924 138.227 76.924 199.214 0 101.182-82.318 183.499-183.5 183.499z" fill="#7dd5f4"/></g><path d="m305.575 129.284c-19.247-32.938-39.773-64.018-57.8-87.517-29.564-38.539-40.679-41.767-48.776-41.767v511.998c101.182 0 183.5-82.317 183.5-183.5 0-60.987-53.795-159.633-76.924-199.214z" fill="#4793ff"/><g><path d="m165.302 401.842c-2.545 0-5.124-.648-7.486-2.013-7.174-4.142-9.632-13.315-5.49-20.49l67.366-116.682c4.142-7.174 13.315-9.635 20.49-5.49 7.174 4.142 9.632 13.315 5.49 20.49l-67.366 116.682c-2.778 4.811-7.82 7.503-13.004 7.503z" fill="#fff4f4"/></g><g><path clip-rule="evenodd" d="m146.5 301.999c8.262 0 15-6.739 15-15 0-8.262-6.738-15-15-15s-15 6.738-15 15c-.001 8.261 6.738 15 15 15z" fill="#fff4f4" fill-rule="evenodd"/></g><g><path clip-rule="evenodd" d="m246.5 386.998c8.262 0 15-6.738 15-15s-6.738-15-15-15-15 6.738-15 15c-.001 8.262 6.738 15 15 15z" fill="#f6efea" fill-rule="evenodd"/></g><path d="m240.182 257.167c-7.175-4.145-16.348-1.684-20.49 5.49l-20.693 35.841v60l46.673-80.841c4.142-7.175 1.684-16.348-5.49-20.49z" fill="#f6efea"/></g>
</symbol>

<symbol id="icon-display-thermometer" viewBox="0 0 512 512">
<g><g><path d="m128 512c-59.552 0-108-48.448-108-108 0-34.229 15.926-65.891 43-86.262v-252.738c0-35.841 29.159-65 65-65s65 29.159 65 65v252.738c27.071 20.371 43 52.034 43 86.262 0 59.552-48.449 108-108 108z" fill="#fff4f4"/></g><path d="m193 317.738v-252.738c0-35.841-29.159-65-65-65v512c59.552 0 108-48.448 108-108 0-34.228-15.929-65.891-43-86.262z" fill="#f6efea"/><g><path d="m376.211 285.039c-3.254 0-6.519-.135-9.79-.406-31.215-2.59-59.553-17.182-79.794-41.086s-29.961-54.261-27.37-85.477c3.545-42.721 30.105-80.085 69.314-97.51 5.04-2.238 10.903-1.534 15.267 1.841 4.363 3.373 6.523 8.87 5.624 14.312-4.029 24.391 2.104 48.54 17.273 68 15.149 19.434 37.022 31.259 61.59 33.298 14.577 1.206 29.305-1.27 42.583-7.171 5.04-2.238 10.903-1.533 15.267 1.84 4.363 3.374 6.523 8.87 5.625 14.312-4.787 28.976-20.195 54.938-43.389 73.107-20.743 16.25-46.069 24.94-72.2 24.94z" fill="#ffcd00"/></g><path d="m143 178.915v-113.915c0-8.284-6.716-15-15-15s-15 6.716-15 15v113.915z" fill="#00429d"/><path d="m128 50v128.915h15v-113.915c0-8.284-6.716-15-15-15z" fill="#00347b"/><path d="m143 361.58v-189.426h-30v189.426c-17.459 6.192-30 22.865-30 42.42 0 24.813 20.187 45 45 45s45-20.187 45-45c0-19.555-12.542-36.228-30-42.42z" fill="#ff8856"/><path d="m143 361.58v-189.426h-15v276.846c24.813 0 45-20.187 45-45 0-19.555-12.542-36.228-30-42.42z" fill="#ff435b"/></g>
</symbol>

<symbol id="icon-blob-weather" viewBox="0 0 200 200">
<path d="M49.8,-58.9C62.6,-48.5,69.7,-31,74.4,-12C79.1,7.1,81.4,27.7,73.3,42.9C65.2,58.2,46.8,68.1,28.3,72.5C9.8,77,-8.8,76,-25.7,70.1C-42.6,64.1,-57.9,53.2,-67.7,38.2C-77.4,23.1,-81.6,4,-78,-13.4C-74.5,-30.7,-63.2,-46.4,-49,-56.5C-34.7,-66.5,-17.3,-71.1,0.6,-71.8C18.5,-72.5,36.9,-69.3,49.8,-58.9Z" transform="translate(100 100)" />
</symbol>

<symbol id="icon-data-404" viewBox="0 0 1120.59226 777.91584">
<circle cx="212.59226" cy="103" r="64" fill="#ff6584"/><path d="M563.68016,404.16381c0,151.01141-89.77389,203.73895-200.51559,203.73895S162.649,555.17522,162.649,404.16381,363.16457,61.04208,363.16457,61.04208,563.68016,253.1524,563.68016,404.16381Z" transform="translate(-39.70387 -61.04208)" fill="#f2f2f2"/><polygon points="316.156 523.761 318.21 397.378 403.674 241.024 318.532 377.552 319.455 320.725 378.357 207.605 319.699 305.687 319.699 305.687 321.359 203.481 384.433 113.423 321.621 187.409 322.658 0 316.138 248.096 316.674 237.861 252.547 139.704 315.646 257.508 309.671 371.654 309.493 368.625 235.565 265.329 309.269 379.328 308.522 393.603 308.388 393.818 308.449 394.99 293.29 684.589 313.544 684.589 315.974 535.005 389.496 421.285 316.156 523.761" fill="#3f3d56"/><path d="M1160.29613,466.01367c0,123.61-73.4842,166.77-164.13156,166.77s-164.13156-43.16-164.13156-166.77S996.16457,185.15218,996.16457,185.15218,1160.29613,342.40364,1160.29613,466.01367Z" transform="translate(-39.70387 -61.04208)" fill="#f2f2f2"/><polygon points="950.482 552.833 952.162 449.383 1022.119 321.4 952.426 433.154 953.182 386.639 1001.396 294.044 953.382 374.329 953.382 374.329 954.741 290.669 1006.369 216.952 954.954 277.514 955.804 124.11 950.467 327.188 950.906 318.811 898.414 238.464 950.064 334.893 945.173 428.327 945.027 425.847 884.514 341.294 944.844 434.608 944.232 446.293 944.123 446.469 944.173 447.428 931.764 684.478 948.343 684.478 950.332 562.037 1010.514 468.952 950.482 552.833" fill="#3f3d56"/><ellipse cx="554.59226" cy="680.47903" rx="554.59226" ry="28.03433" fill="#3f3d56"/><ellipse cx="892.44491" cy="726.79663" rx="94.98858" ry="4.80162" fill="#3f3d56"/><ellipse cx="548.71959" cy="773.11422" rx="94.98858" ry="4.80162" fill="#3f3d56"/><ellipse cx="287.94432" cy="734.27887" rx="217.01436" ry="10.96996" fill="#3f3d56"/><circle cx="97.08375" cy="566.26982" r="79" fill="#2f2e41"/><rect x="99.80546" y="689.02332" width="24" height="43" transform="translate(-31.32451 -62.31008) rotate(0.67509)" fill="#2f2e41"/><rect x="147.80213" y="689.58887" width="24" height="43" transform="translate(-31.31452 -62.87555) rotate(0.67509)" fill="#2f2e41"/><ellipse cx="119.54569" cy="732.61606" rx="7.5" ry="20" transform="translate(-654.1319 782.47948) rotate(-89.32491)" fill="#2f2e41"/><ellipse cx="167.55414" cy="732.18168" rx="7.5" ry="20" transform="translate(-606.25475 830.05533) rotate(-89.32491)" fill="#2f2e41"/><circle cx="99.31925" cy="546.29477" r="27" fill="#fff"/><circle cx="99.31925" cy="546.29477" r="9" fill="#3f3d56"/><path d="M61.02588,552.94636c-6.04185-28.64075,14.68758-57.26483,46.30049-63.93367s62.13813,11.14292,68.18,39.78367-14.97834,38.93-46.59124,45.59886S67.06774,581.58712,61.02588,552.94636Z" transform="translate(-39.70387 -61.04208)" fill="#87c0cd"/><path d="M257.29613,671.38411c0,55.07585-32.73985,74.3063-73.13,74.3063q-1.40351,0-2.80255-.0312c-1.87139-.04011-3.72494-.1292-5.55619-.254-36.45135-2.57979-64.77127-22.79937-64.77127-74.02113,0-53.00843,67.73872-119.89612,72.827-124.84633l.00892-.00889c.19608-.19159.29409-.28516.29409-.28516S257.29613,616.30827,257.29613,671.38411Z" transform="translate(-39.70387 -61.04208)" fill="#87c0cd"/><path d="M181.50168,737.26482l26.747-37.37367-26.81386,41.4773-.07125,4.29076c-1.87139-.04011-3.72494-.1292-5.55619-.254l2.88282-55.10258-.0223-.42775.049-.0802.27179-5.20415-26.88076-41.5798,26.96539,37.67668.06244,1.105,2.17874-41.63324-23.0132-42.96551,23.29391,35.6583,2.26789-86.31419.00892-.294v.28516l-.37871,68.064,22.91079-26.98321-23.00435,32.84678-.60595,37.27566L204.18523,621.958l-21.4805,41.259-.33863,20.723,31.05561-49.79149-31.17146,57.023Z" transform="translate(-39.70387 -61.04208)" fill="#3f3d56"/><circle cx="712.48505" cy="565.41532" r="79" fill="#2f2e41"/><rect x="741.77716" y="691.82355" width="24" height="43" transform="translate(-215.99457 191.86399) rotate(-17.08345)" fill="#2f2e41"/><rect x="787.6593" y="677.72286" width="24" height="43" transform="matrix(0.95588, -0.29376, 0.29376, 0.95588, -209.82788, 204.72037)" fill="#2f2e41"/><ellipse cx="767.887" cy="732.00275" rx="20" ry="7.5" transform="translate(-220.8593 196.83312) rotate(-17.08345)" fill="#2f2e41"/><ellipse cx="813.47537" cy="716.94619" rx="20" ry="7.5" transform="translate(-214.42477 209.56103) rotate(-17.08345)" fill="#2f2e41"/><circle cx="708.52153" cy="545.71023" r="27" fill="#fff"/><circle cx="708.52153" cy="545.71023" r="9" fill="#3f3d56"/><path d="M657.35526,578.74316c-14.48957-25.43323-3.47841-59.016,24.59412-75.0092s62.57592-8.34055,77.06549,17.09268-2.39072,41.6435-30.46325,57.63671S671.84483,604.17639,657.35526,578.74316Z" transform="translate(-39.70387 -61.04208)" fill="#87c0cd"/><path d="M611.29613,661.29875c0,50.55711-30.05368,68.20979-67.13,68.20979q-1.28835,0-2.57261-.02864c-1.71785-.03682-3.41933-.1186-5.10033-.23313-33.46068-2.36813-59.45707-20.92878-59.45707-67.948,0-48.65932,62.18106-110.05916,66.85186-114.60322l.00819-.00817c.18-.17587.27-.26177.27-.26177S611.29613,610.74164,611.29613,661.29875Z" transform="translate(-39.70387 -61.04208)" fill="#87c0cd"/><path d="M541.72029,721.77424l24.55253-34.30732-24.6139,38.07426-.0654,3.93872c-1.71785-.03682-3.41933-.1186-5.10033-.23313l2.6463-50.58165-.02047-.39266.045-.07361.24949-4.77718-24.67531-38.16836,24.753,34.58547.05731,1.01433,2-38.21741-21.12507-39.44039L541.80616,625.928l2.08182-79.23247.00819-.26994v.26177l-.34764,62.47962,21.031-24.76934-21.11693,30.15184-.55624,34.21735,19.63634-32.839-19.71812,37.87389-.31085,19.0228,28.50763-45.70631-28.614,52.34448Z" transform="translate(-39.70387 -61.04208)" fill="#3f3d56"/><path d="M875.29613,682.38411c0,55.07585-32.73985,74.3063-73.13,74.3063q-1.4035,0-2.80255-.0312c-1.87139-.04011-3.72494-.1292-5.55619-.254-36.45135-2.57979-64.77127-22.79937-64.77127-74.02113,0-53.00843,67.73872-119.89612,72.827-124.84633l.00892-.00889c.19608-.19159.29409-.28516.29409-.28516S875.29613,627.30827,875.29613,682.38411Z" transform="translate(-39.70387 -61.04208)" fill="#87c0cd"/><path d="M799.50168,748.26482l26.747-37.37367-26.81386,41.4773-.07125,4.29076c-1.87139-.04011-3.72494-.1292-5.55619-.254l2.88282-55.10258-.0223-.42775.049-.0802.27179-5.20415L770.108,654.01076l26.96539,37.67668.06244,1.105,2.17874-41.63324-23.0132-42.96551,23.29391,35.6583,2.26789-86.31419.00892-.294v.28516l-.37871,68.064,22.91079-26.98321-23.00435,32.84678-.606,37.27566L822.18523,632.958l-21.4805,41.259-.33863,20.723,31.05561-49.79149-31.17146,57.023Z" transform="translate(-39.70387 -61.04208)" fill="#3f3d56"/><ellipse cx="721.51694" cy="656.82212" rx="12.40027" ry="39.5" transform="translate(-220.83517 966.22323) rotate(-64.62574)" fill="#2f2e41"/><ellipse cx="112.51694" cy="651.82212" rx="12.40027" ry="39.5" transform="translate(-574.07936 452.71367) rotate(-68.15829)" fill="#2f2e41"/>
</symbol>

<symbol id="icon-marker" viewBox="0 0 512 512">
<g>
<g xmlns="http://www.w3.org/2000/svg">
	<g>
		<path d="M256,0C153.755,0,70.573,83.182,70.573,185.426c0,126.888,165.939,313.167,173.004,321.035    c6.636,7.391,18.222,7.378,24.846,0c7.065-7.868,173.004-194.147,173.004-321.035C441.425,83.182,358.244,0,256,0z M256,278.719    c-51.442,0-93.292-41.851-93.292-93.293S204.559,92.134,256,92.134s93.291,41.851,93.291,93.293S307.441,278.719,256,278.719z" data-original="#000000" style=""/>
	</g>
</g>
<g xmlns="http://www.w3.org/2000/svg">
</g>
<g xmlns="http://www.w3.org/2000/svg">
</g>
<g xmlns="http://www.w3.org/2000/svg">
</g>
<g xmlns="http://www.w3.org/2000/svg">
</g>
<g xmlns="http://www.w3.org/2000/svg">
</g>
<g xmlns="http://www.w3.org/2000/svg">
</g>
<g xmlns="http://www.w3.org/2000/svg">
</g>
<g xmlns="http://www.w3.org/2000/svg">
</g>
<g xmlns="http://www.w3.org/2000/svg">
</g>
<g xmlns="http://www.w3.org/2000/svg">
</g>
<g xmlns="http://www.w3.org/2000/svg">
</g>
<g xmlns="http://www.w3.org/2000/svg">
</g>
<g xmlns="http://www.w3.org/2000/svg">
</g>
<g xmlns="http://www.w3.org/2000/svg">
</g>
<g xmlns="http://www.w3.org/2000/svg">
</g>
</g>
</symbol>

<symbol id="icon-page-404" viewBox="0 0 1074.392 584.231">
<ellipse cx="540.64346" cy="549.3094" rx="527.5" ry="34.9216" fill="#f2f2f2"/><path d="M583.47969,324.89424c-85.94407,0-147.651,55.13938-147.651,183.79791,0,145.813,61.70691,184.41057,147.651,184.41057s151.327-42.27352,151.327-184.41057C734.80664,356.75255,669.42376,324.89424,583.47969,324.89424Zm.56495,319.80837c-59.52686,0-90.62592-34.92288-90.62592-135.9163,0-89.11185,32.37209-136.10461,91.899-136.10461s91.899,30.86774,91.899,136.10461C677.21663,607.23367,643.5715,644.70261,584.04464,644.70261Z" transform="translate(-63.054 -157.8845)" fill="#2f2e41"/><path d="M384.36531,591.40121H348.831V486.76183A20.95585,20.95585,0,0,0,327.87517,465.806h-8.32638a20.95585,20.95585,0,0,0-20.95586,20.95585V591.40121H198.36285a11.96327,11.96327,0,0,1-10.57763-17.552l106.0824-200.78034A20.95585,20.95585,0,0,0,284.28724,344.33l-6.26231-2.9572a20.95585,20.95585,0,0,0-27.4293,9.07005L121.21416,592.4754a28.41578,28.41578,0,0,0-3.35584,13.39612v0a28.41583,28.41583,0,0,0,28.41584,28.41583H298.59293v66.16727a25.119,25.119,0,0,0,25.119,25.119h.00005a25.119,25.119,0,0,0,25.119-25.119V634.28739h35.53428a21.44307,21.44307,0,0,0,21.44307-21.44307v0A21.44307,21.44307,0,0,0,384.36531,591.40121Z" transform="translate(-63.054 -157.8845)" fill="#87c0cd"/><path d="M1042.36183,591.40121h-35.53428V486.76183A20.95585,20.95585,0,0,0,985.87169,465.806h-8.32638a20.95585,20.95585,0,0,0-20.95586,20.95585V591.40121H856.35937a11.96326,11.96326,0,0,1-10.57763-17.552L951.86413,373.06891A20.95586,20.95586,0,0,0,942.28376,344.33l-6.26231-2.9572a20.95586,20.95586,0,0,0-27.42931,9.07005L779.21068,592.4754a28.41578,28.41578,0,0,0-3.35584,13.39612v0a28.41583,28.41583,0,0,0,28.41583,28.41583H956.58945v66.16727a25.119,25.119,0,0,0,25.119,25.119h0a25.119,25.119,0,0,0,25.119-25.119V634.28739h35.53428a21.44307,21.44307,0,0,0,21.44307-21.44307v0A21.44307,21.44307,0,0,0,1042.36183,591.40121Z" transform="translate(-63.054 -157.8845)" fill="#87c0cd"/><path d="M394.16787,579.148H358.63358V474.50864a20.95585,20.95585,0,0,0-20.95585-20.95586h-8.32638a20.95586,20.95586,0,0,0-20.95586,20.95586V579.148H208.16541a11.96327,11.96327,0,0,1-10.57763-17.552L303.67017,360.81572a20.95586,20.95586,0,0,0-9.58037-28.73893l-6.26231-2.9572a20.95586,20.95586,0,0,0-27.42931,9.07L131.01672,580.2222a28.41582,28.41582,0,0,0-3.35584,13.39613v0a28.41583,28.41583,0,0,0,28.41583,28.41583H308.39549v66.16727a25.119,25.119,0,0,0,25.119,25.119h.00005a25.119,25.119,0,0,0,25.119-25.119V622.0342h35.53429a21.44307,21.44307,0,0,0,21.44307-21.44307v0A21.44307,21.44307,0,0,0,394.16787,579.148Z" transform="translate(-63.054 -157.8845)" fill="none" stroke="#3f3d56" stroke-miterlimit="10"/><path d="M1060.74162,579.148h-35.53428V474.50864a20.95586,20.95586,0,0,0-20.95586-20.95586H995.9251a20.95586,20.95586,0,0,0-20.95586,20.95586V579.148H874.73916a11.96327,11.96327,0,0,1-10.57763-17.552L970.24392,360.81572a20.95586,20.95586,0,0,0-9.58037-28.73893l-6.26231-2.9572a20.95586,20.95586,0,0,0-27.42931,9.07L797.59047,580.2222a28.41582,28.41582,0,0,0-3.35584,13.39613v0a28.41583,28.41583,0,0,0,28.41583,28.41583H974.96924v66.16727a25.119,25.119,0,0,0,25.119,25.119h0a25.119,25.119,0,0,0,25.119-25.119V622.0342h35.53428a21.44307,21.44307,0,0,0,21.44307-21.44307v0A21.44307,21.44307,0,0,0,1060.74162,579.148Z" transform="translate(-63.054 -157.8845)" fill="none" stroke="#3f3d56" stroke-miterlimit="10"/><path d="M603.0848,313.86637c-85.94407,0-147.651,55.13937-147.651,183.79791,0,145.813,61.70691,184.41057,147.651,184.41057s151.327-42.27352,151.327-184.41057C754.41175,345.72467,689.02887,313.86637,603.0848,313.86637Zm.565,319.80836c-59.52686,0-90.62592-34.92287-90.62592-135.91629,0-89.11185,32.37209-136.10461,91.899-136.10461s91.899,30.86774,91.899,136.10461C696.82174,596.20579,663.17661,633.67473,603.64975,633.67473Z" transform="translate(-63.054 -157.8845)" fill="none" stroke="#3f3d56" stroke-miterlimit="10"/><circle cx="471.14108" cy="18.25044" r="12.90118" fill="#2f2e41"/><ellipse cx="502.60736" cy="46.88476" rx="36.18622" ry="46.88476" fill="#2f2e41"/><path d="M565.66136,237.49419c-18.1276,0-33.1413-17.27052-35.77576-39.80484a60.9759,60.9759,0,0,0-.41046,7.07991c0,25.89373,16.20114,46.88476,36.18622,46.88476s36.18623-20.991,36.18623-46.88476a60.9759,60.9759,0,0,0-.41046-7.07991C598.80267,220.22367,583.789,237.49419,565.66136,237.49419Z" transform="translate(-63.054 -157.8845)" opacity="0.1"/><path d="M639.29619,342.07326c-.77711,3.19345-4.12792,5.751-7.83881,7.53791-7.80188,3.75682-17.4253,4.87788-26.7597,5.25418a45.17622,45.17622,0,0,1-7.1445-.132,20.5371,20.5371,0,0,1-12.25052-5.63141,1.68086,1.68086,0,0,1,.04371-2.84388c4.9694-5.45888,13.2622-8.80605,21.61613-11.21609,6.3344-1.82743,17.3813-6.56089,24.29013-5.9221C637.94444,329.73864,640.2774,338.04112,639.29619,342.07326Z" transform="translate(-63.054 -157.8845)" fill="#3f3d56"/><path d="M639.29619,342.07326c-.77711,3.19345-4.12792,5.751-7.83881,7.53791-7.80188,3.75682-17.4253,4.87788-26.7597,5.25418a45.17622,45.17622,0,0,1-7.1445-.132,20.5371,20.5371,0,0,1-12.25052-5.63141,1.68086,1.68086,0,0,1,.04371-2.84388c4.9694-5.45888,13.2622-8.80605,21.61613-11.21609,6.3344-1.82743,17.3813-6.56089,24.29013-5.9221C637.94444,329.73864,640.2774,338.04112,639.29619,342.07326Z" transform="translate(-63.054 -157.8845)" opacity="0.1"/><path d="M540.09786,318.2059a19.76967,19.76967,0,0,0-1.1987,15.07476,26.33914,26.33914,0,0,0,8.82921,12.49683c10.09467,8.09163,23.98784,9.20512,36.92477,9.09278a284.6495,284.6495,0,0,0,33.90525-2.32384,40.53788,40.53788,0,0,0,11.00143-2.55442c4.22242-1.82679,7.93282-5.17756,9.436-9.5257s.43625-9.67246-3.13383-12.57428c-3.13686-2.54969-7.46265-2.9004-11.49775-3.14289l-23.08764-1.38745c2.281-2.30839,5.31816-3.614,8.09586-5.29216,3.68523-2.22642,6.13358-5.96455,8.81312-9.33471a129.00143,129.00143,0,0,1,13.4386-13.817c.75138,4.31038,3.4782,7.8499,6.68733,10.824s6.90841,5.36845,10.2439,8.20013c8.0786,6.85838,13.89583,16.1669,22.39215,22.50043a43.82885,43.82885,0,0,0,16.04862-8.0122l-3.30209-5.98141a3.94,3.94,0,0,0-1.24459-1.55282c-.93465-.575-2.13975-.27872-3.225-.44144-2.90082-.435-4.16771-3.784-5.306-6.48737-3.12491-7.42173-9.108-13.17993-14.21783-19.40381a98.00854,98.00854,0,0,1-9.99577-14.72284c-1.71652-3.10162-3.288-6.33107-5.61746-9.00321s-5.59358-4.773-9.1385-4.78051c-3.13222-.00662-6.02122,1.58355-8.71422,3.18308a230.47679,230.47679,0,0,0-23.63018,16.09894c-3.94376,3.0617-7.86306,6.29645-12.48933,8.17393-1.94748.79035-4.00044,1.33052-5.86924,2.29223-3.27313,1.6844-5.75721,4.53435-8.43128,7.06415C566.27712,311.89225,553.219,317.73841,540.09786,318.2059Z" transform="translate(-63.054 -157.8845)" fill="#3f3d56"/><path d="M588.3737,253.98251a23.77444,23.77444,0,0,1-1.73379,8.03335,10.04492,10.04492,0,0,1-5.76772,5.57269,12.37513,12.37513,0,0,1-5.62306.18249,10.88232,10.88232,0,0,1-4.58151-1.56071c-2.16484-1.48837-3.24415-4.14413-3.63748-6.74325-.39333-2.596-.21714-5.24857-.46885-7.86342a42.94439,42.94439,0,0,0-1.202-6.25549c-.16993-.68282-.343-1.36248-.51294-2.04216-.16674-.67967-.33037-1.35935-.48141-2.039-.13847-.63878-.26745-1.28068-.37761-1.92574-.09123-.54436-.173-1.09189-.23285-1.64255a18.42329,18.42329,0,0,0-.80867-4.81118,14.60727,14.60727,0,0,0-1.68659-2.854c-.28635-.40906-.56326-.81811-.81815-1.24292a5.88984,5.88984,0,0,1-.97226-3.74763,3.286,3.286,0,0,1,.14788-.601c.02516-.07552.05347-.151.085-.2234A1.80187,1.80187,0,0,0,560.932,223.07a3.43341,3.43341,0,0,0-.14788-1.77783,11.31808,11.31808,0,0,0-.95974-2.28761c-.2643-.47829-1.16108-1.34046-1.16738-1.888-.0126-1.10132,2.13972-1.98867,3.01134-2.42291a16.79623,16.79623,0,0,1,8.59657-1.74323c1.90369.129,3.9679.71428,5.0189,2.30962.944,1.438.81807,3.30081,1.22085,4.97169a1.47068,1.47068,0,0,0,.29892.66393,1.34135,1.34135,0,0,0,.73948.33982,4.54948,4.54948,0,0,0,1.416.05666h.00315a2.93138,2.93138,0,0,0,.37128-.05351,4.957,4.957,0,0,0,2.03271-.8779q.58531-.15576,1.18-.25488a.25112.25112,0,0,0,.04725-.00945c1.57646,4.97482,1.781,10.30836,3.07111,15.37444.63874,2.52044,1.55442,5.00943,1.6834,7.60225.00945.11327.0126.2297.01575.34612.0189.83386-.04717,1.674-.0126,2.50472a6.981,6.981,0,0,0,.12591,1.1139,15.61121,15.61121,0,0,0,.52546,1.74325l.00945.02831c.05977.18251.11643.36817.16363.55381.03457.1353.06607.26747.09127.40277l.00311.00943A14.93754,14.93754,0,0,1,588.3737,253.98251Z" transform="translate(-63.054 -157.8845)" fill="#fbbebe"/><circle cx="503.23669" cy="44.99678" r="18.56511" fill="#fbbebe"/><path d="M684.15711,304.03278a30.445,30.445,0,0,0-5.236-14.10317q.72216,4.29513,1.44748,8.58714a3.214,3.214,0,0,1-3.36688-1.03523,10.33663,10.33663,0,0,1-1.76529-3.27565,67.46571,67.46571,0,0,0-8.2095-14.73567c-11.81876-.98489-23.50223-5.88418-33.89555-11.59532-10.39643-5.708-20.12582-12.5519-30.38382-18.50217a43.57346,43.57346,0,0,0-5.54436-2.832c-3.20954-1.287-6.81242-1.95406-9.85526-3.46759-.2045-.1007-.409-.20767-.61043-.31781a12.57834,12.57834,0,0,1-1.94459-1.30584,10.34363,10.34363,0,0,1-.93139-.8559,20.35115,20.35115,0,0,1-3.55886-5.95341c-1.63308-3.61232-2.21524-7.97041-3.84517-11.58274a11.20292,11.20292,0,0,1,2.50156-1.76525h.00315c.13213-.06924.2643-.13532.39962-.19824a11.9404,11.9404,0,0,1,2.00437-.73317q.58531-.15576,1.18-.25488a.25112.25112,0,0,0,.04725-.00945,11.56564,11.56564,0,0,1,5.49085.43424c2.58652.87477,4.76711,2.62115,6.94148,4.27313a114.02006,114.02006,0,0,1,10.14787,8.04908c1.79357,1.718,3.4298,3.606,5.35868,5.16676a42.14393,42.14393,0,0,0,5.05662,3.35116q15.65613,9.32658,31.31525,18.65005c3.53365,2.1051,7.07046,4.21019,10.52553,6.438,5.24855,3.38578,10.30828,7.05474,15.36493,10.72057q4.46978,3.23787,8.93647,6.47889a9.72771,9.72771,0,0,1,2.533,2.3411,8.4724,8.4724,0,0,1,1.12337,3.433A31.3874,31.3874,0,0,1,684.15711,304.03278Z" transform="translate(-63.054 -157.8845)" fill="#fbbebe"/><path d="M592.97726,267.9441c-1.25235,5.61674-6.92888,9.012-9.89617,13.94586-3.68784,6.12335-2.18378,13.241-.79922,20.25484q-3.79485,3.27095-7.59285,6.54186c-1.39708,1.19886-2.79417,2.404-4.29827,3.46444a57.35064,57.35064,0,0,1-6.85966,3.93956q-3.3606,1.72752-6.72119,3.45814a32.1282,32.1282,0,0,1-6.57961,2.78793c-4.41473,1.13278-9.10318.33982-13.4707-.97232a6.08761,6.08761,0,0,1-1.47264-.601,2.39351,2.39351,0,0,1-.69854-.63248,3.91067,3.91067,0,0,1-.44365-2.53933c.44365-7.35052,2.24036-14.54686,4.03081-21.68971a85.2598,85.2598,0,0,1,3.84832-12.57708,85.0766,85.0766,0,0,1,5.41538-10.151,68.36751,68.36751,0,0,1,7.92948-11.51353,18.47881,18.47881,0,0,0,3.67525-4.73882c1.11706-2.54876.686-5.472.91252-8.24732a17.14844,17.14844,0,0,1,1.63312-6.0069v-.00315a17.09326,17.09326,0,0,1,1.74321-2.88232q.45788,1.06671.91568,2.13027.30209.69855.59783,1.394.38706.89679.7678,1.78728,1.09973,2.55823,2.19637,5.11327a21.58968,21.58968,0,0,0,3.33538,5.944,6.49923,6.49923,0,0,0,11.12337-.85275,21.26125,21.26125,0,0,0,2.27185-6.0132,19.21547,19.21547,0,0,0,.25175-7.83509c-.75835-5.00945-2.88862-10.12585-4.43678-14.77972a14.94511,14.94511,0,0,1-1.07927-4.871,3.35144,3.35144,0,0,1,.05662-.56011c.00945-.04719.0189-.09754.02834-.14473a11.9404,11.9404,0,0,1,2.00437-.73317q.58531-.15576,1.18-.25488,2.04378,11.06355,4.09377,22.12709c.0315.17307.0661.34613.09756.52234.19509,1.05726.39333,2.11454.61358,3.16865.19828.95657.41223,1.91.65137,2.85715l.00945.02831c.08182.321.16678.63877.2549.95658l.00311.00943c.2423.86848.5129,1.73065.81811,2.58024C590.93825,257.47528,594.16355,262.62946,592.97726,267.9441Z" transform="translate(-63.054 -157.8845)" fill="#87c0cd"/><path d="M668.32144,346.87707a6.58269,6.58269,0,0,0,.61,3.14328c1.16192,2.12353,3.94981,2.60625,6.36228,2.80484a188.37688,188.37688,0,0,0,42.2657-1.28774,4.88565,4.88565,0,0,0,2.15136-.66766c1.98985-1.39509.76329-4.7951-1.40951-5.88355s-4.75126-.82614-7.1353-1.29748a22.47912,22.47912,0,0,1-6.67794-2.89617q-7.25234-4.16669-14.293-8.68808c-2.79453-1.79464-6.09272-3.70993-9.23987-2.64587C672.43,332.34264,668.26533,337.68065,668.32144,346.87707Z" transform="translate(-63.054 -157.8845)" fill="#3f3d56"/><path d="M564.43732,240.87367v.00315c-.022.13215-.04406.26116-.07237.39018-.0346.214-.07551.43108-.11642.645-.39018,1.99812-.86847,3.98678-1.41913,5.96287-1.5104,5.45939-3.53366,10.83069-5.54121,16.12332q-8.08055,21.28692-16.16423,42.577c-1.35936,3.57457-2.71554,7.15228-4.26054,10.65448-.516,1.16741-1.04782,2.34424-1.57647,3.53368-1.89427,4.25737-3.713,8.65322-4.31716,13.18436a27.44976,27.44976,0,0,0-.19194,9.04027c.60416,2.97042,2.40718,5.8716,5.22969,6.96977,1.37823.53808,3.35113,1.25865,2.97355,2.69037-.2045.78665-1.09817,1.17055-1.90057,1.3027a7.31234,7.31234,0,0,1-5.966-1.718c-1.50725-1.33732-2.66518-3.41725-4.66959-3.64065-1.38767-.151-2.66518.67966-3.93643,1.26178-5.18564,2.36942-11.22719.71114-16.674-.9723.42794-2.20579,2.64318-3.65953,4.84267-4.10006,2.19949-.44367,4.47449-.129,6.718-.18879a3.50958,3.50958,0,0,0,2.04216-.52549,3.70545,3.70545,0,0,0,1.10132-1.88169,78.96356,78.96356,0,0,0,3.21273-13.14661c.7237-4.66645,1.02581-9.40527,2.05787-14.01507.80241-3.59661,2.0422-7.07991,3.10572-10.61044a224.68238,224.68238,0,0,0,5.0598-22.07674,78.02019,78.02019,0,0,0,1.42543-9.36751c.17935-2.6117.09438-5.236.34609-7.83826a60.8877,60.8877,0,0,1,2.11141-9.99683q1.44427-5.34769,2.88547-10.68911c1.42544-5.2706,2.95465-10.74572,6.567-14.84264a13.96159,13.96159,0,0,1,10.02834-4.78915,9.8819,9.8819,0,0,1,2.13027.22969c.11639.02831.23285.05664.34923.0881a8.63447,8.63447,0,0,1,2.17437.89995c1.11388-.708,1.68025-.45942,2.41974.63246a6.97319,6.97319,0,0,1,.88107,3.79485A52.42378,52.42378,0,0,1,564.43732,240.87367Z" transform="translate(-63.054 -157.8845)" fill="#fbbebe"/><path d="M565.66136,245.0461l-.0472.04719-.25486.25488-2.5299,2.52675-1.23976-5.20767-4.25109-17.854a9.8819,9.8819,0,0,1,2.13027.22969,3.286,3.286,0,0,1,.14788-.601l.20135.68911,1.44118,4.90245,2.72811,9.30773.45,1.53241v.00315Z" transform="translate(-63.054 -157.8845)" fill="#87c0cd"/><path d="M581.71523,188.0873a12.58165,12.58165,0,0,1-3.70049,8.89583,12.31392,12.31392,0,0,1-1.36008,1.17634,12.52812,12.52812,0,0,1-7.53567,2.52415H554.023a12.5902,12.5902,0,0,1,0-25.18037h15.096A12.62919,12.62919,0,0,1,581.71523,188.0873Z" transform="translate(-63.054 -157.8845)" fill="#2f2e41"/><circle cx="532.81499" cy="18.25044" r="12.90118" fill="#2f2e41"/><path d="M595.55433,163.23377c-.15825,0-.31505.00628-.472.01193a12.89776,12.89776,0,0,1,0,25.77849c.15694.00565.31374.01193.472.01193a12.90117,12.90117,0,1,0,0-25.80235Z" transform="translate(-63.054 -157.8845)" opacity="0.1"/><path d="M534.19508,163.23377c.15825,0,.31505.00628.472.01193a12.89776,12.89776,0,0,0,0,25.77849c-.157.00565-.31375.01193-.472.01193a12.90118,12.90118,0,0,1,0-25.80235Z" transform="translate(-63.054 -157.8845)" opacity="0.1"/><path d="M576.65466,198.15947a12.52812,12.52812,0,0,1-7.53567,2.52415H554.023a12.52833,12.52833,0,0,1-7.53574-2.52415Z" transform="translate(-63.054 -157.8845)" opacity="0.1"/><path d="M674.13958,291.64042s3.25228,9.37161,6.229,6.87633L677.996,286.26693Z" transform="translate(-63.054 -157.8845)" fill="#fbbebe"/><path d="M1069.91781,577.43414a20.81252,20.81252,0,1,0,2.7716-39.91524l.52093,10.7122-5.06814-9.18045a20.734,20.734,0,0,0-10.68367,11.72261,20.40847,20.40847,0,0,0-1.19713,5.62986A20.80856,20.80856,0,0,0,1069.91781,577.43414Z" transform="translate(-63.054 -157.8845)" fill="#57b894"/><path d="M1094.99516,701.67756c-1.78906-9.11027,5.9633-17.1868,13.62086-22.43651s16.605-10.40779,19.21775-19.31684c3.755-12.80387-7.43-24.52981-16.13564-34.64176a125.30044,125.30044,0,0,1-16.52359-24.55738c-1.81107-3.5325-3.47558-7.22528-3.95221-11.16626-.68641-5.67546,1.13693-11.32309,2.9739-16.73673q9.17925-27.05169,19.62843-53.65005" transform="translate(-63.054 -157.8845)" fill="none" stroke="#3f3d56" stroke-miterlimit="10"/><path d="M1070.77493,574.6762a20.81252,20.81252,0,1,0,2.7716-39.91524l.52093,10.7122-5.06815-9.18045a20.734,20.734,0,0,0-10.68366,11.72261,20.40847,20.40847,0,0,0-1.19713,5.62986A20.80855,20.80855,0,0,0,1070.77493,574.6762Z" transform="translate(-63.054 -157.8845)" fill="none" stroke="#3f3d56" stroke-miterlimit="10"/><path d="M1092.45136,515.47266a20.78819,20.78819,0,0,1,14.97993-13.19764l1.71361,10.18378,3.177-10.69566a20.81,20.81,0,1,1-19.87057,13.70952Z" transform="translate(-63.054 -157.8845)" fill="#57b894"/><path d="M1093.59418,511.7954a20.7882,20.7882,0,0,1,14.97993-13.19763l1.71361,10.18378,3.177-10.69567a20.81,20.81,0,1,1-19.87057,13.70952Z" transform="translate(-63.054 -157.8845)" fill="none" stroke="#3f3d56" stroke-miterlimit="10"/><path d="M1108.04474,625.48885a20.81,20.81,0,0,0,18.419-37.02267l-2.44121,8.21926-1.73105-10.30382a.36183.36183,0,0,0-.053-.0201,20.81113,20.81113,0,1,0-14.1938,39.12733Z" transform="translate(-63.054 -157.8845)" fill="#57b894"/><path d="M1109.035,621.76417a20.81,20.81,0,0,0,18.419-37.02267l-2.44121,8.21926-1.73105-10.30382a.3621.3621,0,0,0-.053-.0201,20.81113,20.81113,0,1,0-14.1938,39.12733Z" transform="translate(-63.054 -157.8845)" fill="none" stroke="#3f3d56" stroke-miterlimit="10"/><path d="M1086.37782,660.05148a20.80131,20.80131,0,1,0,4.01058-16.29737l9.27267,13.95654-12.66994-7.40768A20.61638,20.61638,0,0,0,1086.37782,660.05148Z" transform="translate(-63.054 -157.8845)" fill="#57b894"/><path d="M1087.23494,657.29354a20.80131,20.80131,0,1,0,4.01058-16.29737l9.27267,13.95655-12.66994-7.40769A20.61626,20.61626,0,0,0,1087.23494,657.29354Z" transform="translate(-63.054 -157.8845)" fill="none" stroke="#3f3d56" stroke-miterlimit="10"/><path d="M72.06146,628.13325a13.67421,13.67421,0,1,0,1.821-26.225l.34227,7.03811-3.32987-6.03172a13.62263,13.62263,0,0,0-7.01936,7.702,13.40883,13.40883,0,0,0-.78654,3.69893A13.6716,13.6716,0,0,0,72.06146,628.13325Z" transform="translate(-63.054 -157.8845)" fill="#57b894"/><path d="M88.53774,709.76344c-1.17545-5.98561,3.918-11.292,8.94915-14.7412s10.90978-6.8381,12.62642-12.69151c2.46711-8.41238-4.88167-16.11653-10.60142-22.76027A82.32442,82.32442,0,0,1,88.6556,643.43581a22.20962,22.20962,0,0,1-2.59668-7.33643c-.451-3.72888.747-7.43947,1.95391-10.99634q6.03093-17.77346,12.89623-35.24906" transform="translate(-63.054 -157.8845)" fill="none" stroke="#3f3d56" stroke-miterlimit="10"/><path d="M72.62461,626.32123a13.6742,13.6742,0,1,0,1.821-26.225l.34227,7.03812L71.458,601.10258a13.62262,13.62262,0,0,0-7.01936,7.702,13.40912,13.40912,0,0,0-.78654,3.69892A13.67158,13.67158,0,0,0,72.62461,626.32123Z" transform="translate(-63.054 -157.8845)" fill="none" stroke="#3f3d56" stroke-miterlimit="10"/><path d="M86.86641,587.42343a13.65822,13.65822,0,0,1,9.84209-8.67109l1.12587,6.69093,2.08737-7.02725a13.67252,13.67252,0,1,1-13.05533,9.00741Z" transform="translate(-63.054 -157.8845)" fill="#57b894"/><path d="M87.61727,585.0074a13.65822,13.65822,0,0,1,9.84209-8.67108l1.12587,6.69093L100.6726,576a13.67252,13.67252,0,1,1-13.05533,9.0074Z" transform="translate(-63.054 -157.8845)" fill="none" stroke="#3f3d56" stroke-miterlimit="10"/><path d="M97.11155,659.70607a13.67255,13.67255,0,0,0,12.10164-24.32457l-1.60392,5.4002-1.13733-6.76979a.238.238,0,0,0-.0348-.0132,13.67329,13.67329,0,1,0-9.32559,25.70736Z" transform="translate(-63.054 -157.8845)" fill="#57b894"/><path d="M97.76214,657.25889a13.67255,13.67255,0,0,0,12.10164-24.32457l-1.60392,5.4002-1.13733-6.7698a.238.238,0,0,0-.0348-.0132,13.67329,13.67329,0,1,0-9.32559,25.70737Z" transform="translate(-63.054 -157.8845)" fill="none" stroke="#3f3d56" stroke-miterlimit="10"/><path d="M82.876,682.41435a13.66684,13.66684,0,1,0,2.635-10.70767l6.09231,9.16971-8.32438-4.867A13.54535,13.54535,0,0,0,82.876,682.41435Z" transform="translate(-63.054 -157.8845)" fill="#57b894"/><path d="M83.43913,680.60233a13.66684,13.66684,0,1,0,2.635-10.70767l6.09231,9.16971-8.32439-4.867A13.54535,13.54535,0,0,0,83.43913,680.60233Z" transform="translate(-63.054 -157.8845)" fill="none" stroke="#3f3d56" stroke-miterlimit="10"/><ellipse cx="480.946" cy="319.1155" rx="17" ry="22" fill="#2f2e41"/><ellipse cx="573.446" cy="319.6155" rx="17" ry="22" fill="#2f2e41"/><path d="M623.5,542.5c0,9.94-13.88,18-31,18s-31-8.06-31-18c0-8.61,10.41-15.81,24.32-17.57a50.10353,50.10353,0,0,1,6.68-.43,50.69869,50.69869,0,0,1,11.13,1.2C615.25,528.29,623.5,534.84,623.5,542.5Z" transform="translate(-63.054 -157.8845)" fill="#2f2e41"/><ellipse cx="484.946" cy="314.1155" rx="17" ry="22" fill="none" stroke="#3f3d56" stroke-miterlimit="10"/><ellipse cx="577.446" cy="314.6155" rx="17" ry="22" fill="none" stroke="#3f3d56" stroke-miterlimit="10"/><ellipse cx="533.446" cy="379.6155" rx="31" ry="18" fill="none" stroke="#3f3d56" stroke-miterlimit="10"/><path d="M604,527.2a4.93658,4.93658,0,0,1-1.32,3.392A4.33873,4.33873,0,0,1,599.5,532h-10a4.66433,4.66433,0,0,1-4.5-4.8,4.90458,4.90458,0,0,1,.82-2.74134A47.02,47.02,0,0,1,592.5,524a47.66454,47.66454,0,0,1,11.13,1.28A5.06656,5.06656,0,0,1,604,527.2Z" transform="translate(-63.054 -157.8845)" fill="#fff"/><circle cx="484.946" cy="308.1155" r="5" fill="#fff"/><circle cx="577.946" cy="308.1155" r="5" fill="#fff"/><circle cx="582.946" cy="355.1155" r="5" fill="#87c0cd" opacity="0.3"/><circle cx="460.946" cy="355.1155" r="5" fill="#87c0cd" opacity="0.3"/></
</symbol>
</defs>
</svg>